0
SECTION
2
HEADER
9
$INSUNITS
70
4
9
$ACADVER
1
AC1014
9
$HANDSEED
5
FFFF
0
ENDSEC
0
SECTION
2
TABLES
0
TABLE
2
VPORT
5
8
100
AcDbSymbolTable
0
ENDTAB
0
TABLE
2
LTYPE
5
5
100
AcDbSymbolTable
0
LTYPE
5
14
100
AcDbSymbolTableRecord
100
AcDbLinetypeTableRecord
2
BYBLOCK
70
0
0
LTYPE
5
15
100
AcDbSymbolTableRecord
100
AcDbLinetypeTableRecord
2
BYLAYER
70
0
0
ENDTAB
0
TABLE
2
LAYER
5
2
100
AcDbSymbolTable
70
2
0
LAYER
5
50
100
AcDbSymbolTableRecord
100
AcDbLayerTableRecord
2
0
70
0
6
CONTINUOUS
0
ENDTAB
0
TABLE
2
STYLE
5
3
100
AcDbSymbolTable
70
1
0
STYLE
5
11
100
AcDbSymbolTableRecord
100
AcDbTextStyleTableRecord
2
STANDARD
70
0
0
ENDTAB
0
TABLE
2
VIEW
5
6
100
AcDbSymbolTable
70
0
0
ENDTAB
0
TABLE
2
UCS
5
7
100
AcDbSymbolTable
70
0
0
ENDTAB
0
TABLE
2
APPID
5
9
100
AcDbSymbolTable
70
2
0
APPID
5
12
100
AcDbSymbolTableRecord
100
AcDbRegAppTableRecord
2
ACAD
70
0
0
ENDTAB
0
TABLE
2
DIMSTYLE
5
A
100
AcDbSymbolTable
70
1
0
ENDTAB
0
TABLE
2
BLOCK_RECORD
5
1
100
AcDbSymbolTable
70
1
0
BLOCK_RECORD
5
1F
100
AcDbSymbolTableRecord
100
AcDbBlockTableRecord
2
*MODEL_SPACE
0
BLOCK_RECORD
5
1B
100
AcDbSymbolTableRecord
100
AcDbBlockTableRecord
2
*PAPER_SPACE
0
ENDTAB
0
ENDSEC
0
SECTION
2
BLOCKS
0
BLOCK
5
20
100
AcDbEntity
100
AcDbBlockBegin
2
*MODEL_SPACE
0
ENDBLK
5
21
100
AcDbEntity
100
AcDbBlockEnd
0
BLOCK
5
1C
100
AcDbEntity
100
AcDbBlockBegin
2
*PAPER_SPACE
0
ENDBLK
5
1D
100
AcDbEntity
100
AcDbBlockEnd
0
ENDSEC
0
SECTION
2
ENTITIES
0
LWPOLYLINE
5
100
100
AcDbEntity
8
0
100
AcDbPolyline
90
8
70
1
43
0.0
10
5.9999999999999867
20
-2
10
194.00000000000003
20
-2.0000000000000151
42
-0.41421356237309503
10
198
20
-6.0000000000000009
10
198
20
-194.00000000000003
42
-0.41421356237309503
10
194.00000000000003
20
-198
10
5.9999999999999867
20
-198
42
-0.41421356237309503
10
1.9999999999999862
20
-194.00000000000003
10
1.9999999999999858
20
-6.0000000000000009
42
-0.41421356237309503
0
LWPOLYLINE
5
101
100
AcDbEntity
8
0
100
AcDbPolyline
90
4
70
1
43
0.0
10
-73.000001087784767
20
-51.000000759959221
10
-43.000001087784767
20
-51.000000759959221
10
-43.000001087784767
20
-31.000000759959221
10
-73.000001087784767
20
-31.000000759959221
0
LINE
5
102
100
AcDbEntity
8
0
100
AcDbLine
10
-73.000001087784767
20
-41.944065913558006
30
0
11
-72.508868742734194
21
-41.878581866621971
31
0
0
SPLINE
5
103
100
AcDbEntity
8
0
100
AcDbSpline
70
0
71
2
72
6
73
3
74
0
42
0.000000001
43
0.0000000001
44
0.0000000001
40
0
40
0
40
0
40
1
40
1
40
1
10
-72.508868742734194
20
-41.878581866621971
30
0
10
-72.424284834414721
20
-42.296044453978539
30
0
10
-72.221010643988848
20
-42.480219230055809
30
0
0
SPLINE
5
104
100
AcDbEntity
8
0
100
AcDbSpline
70
0
71
2
72
6
73
3
74
0
42
0.000000001
43
0.0000000001
44
0.0000000001
40
0
40
0
40
0
40
1
40
1
40
1
10
-72.221010643988848
20
-42.480219230055809
30
0
10
-72.017736453562975
20
-42.664392814040184
30
0
10
-71.725785452872515
20
-42.664392814040184
30
0
0
SPLINE
5
105
100
AcDbEntity
8
0
100
AcDbSpline
70
0
71
2
72
6
73
3
74
0
42
0.000000001
43
0.0000000001
44
0.0000000001
40
0
40
0
40
0
40
1
40
1
40
1
10
-71.725785452872515
20
-42.664392814040184
30
0
10
-71.379264313727617
20
-42.664392814040184
30
0
10
-71.140519548207521
20
-42.424283847212791
30
0
0
SPLINE
5
106
100
AcDbEntity
8
0
100
AcDbSpline
70
0
71
2
72
6
73
3
74
0
42
0.000000001
43
0.0000000001
44
0.0000000001
40
0
40
0
40
0
40
1
40
1
40
1
10
-71.140519548207521
20
-42.424283847212791
30
0
10
-70.901774633675814
20
-42.184174880385399
30
0
10
-70.901774633675814
20
-41.829467639327049
30
0
0
SPLINE
5
107
100
AcDbEntity
8
0
100
AcDbSpline
70
0
71
2
72
6
73
3
74
0
42
0.000000001
43
0.0000000001
44
0.0000000001
40
0
40
0
40
0
40
1
40
1
40
1
10
-70.901774633675814
20
-41.829467639327049
30
0
10
-70.901774633675814
20
-41.491132602095604
30
0
10
-71.122784186154604
20
-41.271487101912498
30
0
0
SPLINE
5
108
100
AcDbEntity
8
0
100
AcDbSpline
70
0
71
2
72
6
73
3
74
0
42
0.000000001
43
0.0000000001
44
0.0000000001
40
0
40
0
40
0
40
1
40
1
40
1
10
-71.122784186154604
20
-41.271487101912498
30
0
10
-71.343793738633394
20
-41.051841601729393
30
0
10
-71.684857774525881
20
-41.051841601729393
30
0
0
SPLINE
5
109
100
AcDbEntity
8
0
100
AcDbSpline
70
0
71
2
72
6
73
3
74
0
42
0.000000001
43
0.0000000001
44
0.0000000001
40
0
40
0
40
0
40
1
40
1
40
1
10
-71.684857774525881
20
-41.051841601729393
30
0
10
-71.824011970311403
20
-41.051841601729393
30
0
10
-72.031378988176584
20
-41.106412038207054
30
0
0
LINE
5
110
100
AcDbEntity
8
0
100
AcDbLine
10
-72.031378988176584
20
-41.106412038207054
30
0
11
-71.976808775216341
21
-40.675307139754295
31
0
0
SPLINE
5
111
100
AcDbEntity
8
0
100
AcDbSpline
70
0
71
2
72
6
73
3
74
0
42
0.000000001
43
0.0000000001
44
0.0000000001
40
0
40
0
40
0
40
1
40
1
40
1
10
-71.976808775216341
20
-40.675307139754295
30
0
10
-71.927695441991091
20
-40.68076454102993
30
0
10
-71.897681821137667
20
-40.68076454102993
30
0
0
SPLINE
5
112
100
AcDbEntity
8
0
100
AcDbSpline
70
0
71
2
72
6
73
3
74
0
42
0.000000001
43
0.0000000001
44
0.0000000001
40
0
40
0
40
0
40
1
40
1
40
1
10
-71.897681821137667
20
-40.68076454102993
30
0
10
-71.583902854472399
20
-40.68076454102993
30
0
10
-71.332879681140184
20
-40.517053231596947
30
0
0
SPLINE
5
113
100
AcDbEntity
8
0
100
AcDbSpline
70
0
71
2
72
6
73
3
74
0
42
0.000000001
43
0.0000000001
44
0.0000000001
40
0
40
0
40
0
40
1
40
1
40
1
10
-71.332879681140184
20
-40.517053231596947
30
0
10
-71.08185650780797
20
-40.353343114256859
30
0
10
-71.08185650780797
20
-40.012279376387596
30
0
0
SPLINE
5
114
100
AcDbEntity
8
0
100
AcDbSpline
70
0
71
2
72
6
73
3
74
0
42
0.000000001
43
0.0000000001
44
0.0000000001
40
0
40
0
40
0
40
1
40
1
40
1
10
-71.08185650780797
20
-40.012279376387596
30
0
10
-71.08185650780797
20
-39.742155894637108
30
0
10
-71.26466678455472
20
-39.564802274107933
30
0
0
SPLINE
5
115
100
AcDbEntity
8
0
100
AcDbSpline
70
0
71
2
72
6
73
3
74
0
42
0.000000001
43
0.0000000001
44
0.0000000001
40
0
40
0
40
0
40
1
40
1
40
1
10
-71.26466678455472
20
-39.564802274107933
30
0
10
-71.447477210313082
20
-39.387449249625206
30
0
10
-71.736699510365725
20
-39.387449249625206
30
0
0
SPLINE
5
116
100
AcDbEntity
8
0
100
AcDbSpline
70
0
71
2
72
6
73
3
74
0
42
0.000000001
43
0.0000000001
44
0.0000000001
40
0
40
0
40
0
40
1
40
1
40
1
10
-71.736699510365725
20
-39.387449249625206
30
0
10
-72.02319348230958
20
-39.387449249625206
30
0
10
-72.214189413934946
20
-39.56753097474575
30
0
0
SPLINE
5
117
100
AcDbEntity
8
0
100
AcDbSpline
70
0
71
2
72
6
73
3
74
0
42
0.000000001
43
0.0000000001
44
0.0000000001
40
0
40
0
40
0
40
1
40
1
40
1
10
-72.214189413934946
20
-39.56753097474575
30
0
10
-72.405185271054506
20
-39.747613295912743
30
0
10
-72.459755558520555
20
-40.107776746153831
30
0
0
LINE
5
118
100
AcDbEntity
8
0
100
AcDbLine
10
-72.459755558520555
20
-40.107776746153831
30
0
11
-72.950887847691774
21
-40.020464286208153
31
0
0
SPLINE
5
119
100
AcDbEntity
8
0
100
AcDbSpline
70
0
71
2
72
6
73
3
74
0
42
0.000000001
43
0.0000000001
44
0.0000000001
40
0
40
0
40
0
40
1
40
1
40
1
10
-72.950887847691774
20
-40.020464286208153
30
0
10
-72.860846910625696
20
-39.526603445410728
30
0
10
-72.541610915213823
20
-39.255116805434227
30
0
0
SPLINE
5
120
100
AcDbEntity
8
0
100
AcDbSpline
70
0
71
2
72
6
73
3
74
0
42
0.000000001
43
0.0000000001
44
0.0000000001
40
0
40
0
40
0
40
1
40
1
40
1
10
-72.541610915213823
20
-39.255116805434227
30
0
10
-72.22237491980195
20
-38.983629569411278
30
0
10
-71.747613567858934
20
-38.983629569411278
30
0
0
SPLINE
5
121
100
AcDbEntity
8
0
100
AcDbSpline
70
0
71
2
72
6
73
3
74
0
42
0.000000001
43
0.0000000001
44
0.0000000001
40
0
40
0
40
0
40
1
40
1
40
1
10
-71.747613567858934
20
-38.983629569411278
30
0
10
-71.420191992074251
20
-38.983629569411278
30
0
10
-71.144612301141024
20
-39.124147519469261
30
0
0
SPLINE
5
122
100
AcDbEntity
8
0
100
AcDbSpline
70
0
71
2
72
6
73
3
74
0
42
0.000000001
43
0.0000000001
44
0.0000000001
40
0
40
0
40
0
40
1
40
1
40
1
10
-71.144612301141024
20
-39.124147519469261
30
0
10
-70.869032461196184
20
-39.26466666162014
30
0
10
-70.723057109862566
20
-39.50750432908535
30
0
0
SPLINE
5
123
100
AcDbEntity
8
0
100
AcDbSpline
70
0
71
2
72
6
73
3
74
0
42
0.000000001
43
0.0000000001
44
0.0000000001
40
0
40
0
40
0
40
1
40
1
40
1
10
-70.723057109862566
20
-39.50750432908535
30
0
10
-70.577081758528948
20
-39.75034199655056
30
0
10
-70.577081758528948
20
-40.02319298684597
30
0
0
SPLINE
5
124
100
AcDbEntity
8
0
100
AcDbSpline
70
0
71
2
72
6
73
3
74
0
42
0.000000001
43
0.0000000001
44
0.0000000001
40
0
40
0
40
0
40
1
40
1
40
1
10
-70.577081758528948
20
-40.02319298684597
30
0
10
-70.577081758528948
20
-40.282401666045189
30
0
10
-70.716235656291246
20
-40.495226010680199
30
0
0
SPLINE
5
125
100
AcDbEntity
8
0
100
AcDbSpline
70
0
71
2
72
6
73
3
74
0
42
0.000000001
43
0.0000000001
44
0.0000000001
40
0
40
0
40
0
40
1
40
1
40
1
10
-70.716235656291246
20
-40.495226010680199
30
0
10
-70.855389852076769
20
-40.708049163222313
30
0
10
-71.128241140395403
20
-40.833561047911644
30
0
0
SPLINE
5
126
100
AcDbEntity
8
0
100
AcDbSpline
70
0
71
2
72
6
73
3
74
0
42
0.000000001
43
0.0000000001
44
0.0000000001
40
0
40
0
40
0
40
1
40
1
40
1
10
-71.128241140395403
20
-40.833561047911644
30
0
10
-70.773534495383501
20
-40.915416106581688
30
0
10
-70.577081758528948
20
-41.173261031508446
30
0
0
SPLINE
5
127
100
AcDbEntity
8
0
100
AcDbSpline
70
0
71
2
72
6
73
3
74
0
42
0.000000001
43
0.0000000001
44
0.0000000001
40
0
40
0
40
0
40
1
40
1
40
1
10
-70.577081758528948
20
-41.173261031508446
30
0
10
-70.380628723651171
20
-41.431105956435204
30
0
10
-70.380628723651171
20
-41.818554028868675
30
0
0
SPLINE
5
128
100
AcDbEntity
8
0
100
AcDbSpline
70
0
71
2
72
6
73
3
74
0
42
0.000000001
43
0.0000000001
44
0.0000000001
40
0
40
0
40
0
40
1
40
1
40
1
10
-70.380628723651171
20
-41.818554028868675
30
0
10
-70.380628723651171
20
-42.342428788542747
30
0
10
-70.762620437890291
20
-42.706684693694115
30
0
0
SPLINE
5
129
100
AcDbEntity
8
0
100
AcDbSpline
70
0
71
2
72
6
73
3
74
0
42
0.000000001
43
0.0000000001
44
0.0000000001
40
0
40
0
40
0
40
1
40
1
40
1
10
-70.762620437890291
20
-42.706684693694115
30
0
10
-71.144612301141024
20
-43.070941790938377
30
0
10
-71.72851400449872
20
-43.070941790938377
30
0
0
SPLINE
5
130
100
AcDbEntity
8
0
100
AcDbSpline
70
0
71
2
72
6
73
3
74
0
42
0.000000001
43
0.0000000001
44
0.0000000001
40
0
40
0
40
0
40
1
40
1
40
1
10
-71.72851400449872
20
-43.070941790938377
30
0
10
-72.25511709228158
20
-43.070941790938377
30
0
10
-72.603002432733774
20
-42.757162675261497
30
0
0
SPLINE
5
131
100
AcDbEntity
8
0
100
AcDbSpline
70
0
71
2
72
6
73
3
74
0
42
0.000000001
43
0.0000000001
44
0.0000000001
40
0
40
0
40
0
40
1
40
1
40
1
10
-72.603002432733774
20
-42.757162675261497
30
0
10
-72.950887847691774
20
-42.443383559584618
30
0
10
-73.000001087784767
20
-41.944065913558006
30
0
0
SPLINE
5
132
100
AcDbEntity
8
0
100
AcDbSpline
70
0
71
2
72
6
73
3
74
0
42
0.000000001
43
0.0000000001
44
0.0000000001
40
0
40
0
40
0
40
1
40
1
40
1
10
-69.894953388720751
20
-41.027285680174828
30
0
10
-69.894953388720751
20
-40.317872390151024
30
0
10
-69.748978037387133
20
-39.885402545332909
30
0
0
SPLINE
5
133
100
AcDbEntity
8
0
100
AcDbSpline
70
0
71
2
72
6
73
3
74
0
42
0.000000001
43
0.0000000001
44
0.0000000001
40
0
40
0
40
0
40
1
40
1
40
1
10
-69.748978037387133
20
-39.885402545332909
30
0
10
-69.603002388030291
20
-39.452933892607689
30
0
10
-69.315144438296556
20
-39.218281134963036
30
0
0
SPLINE
5
134
100
AcDbEntity
8
0
100
AcDbSpline
70
0
71
2
72
6
73
3
74
0
42
0.000000001
43
0.0000000001
44
0.0000000001
40
0
40
0
40
0
40
1
40
1
40
1
10
-69.315144438296556
20
-39.218281134963036
30
0
10
-69.027286190539598
20
-38.983629569411278
30
0
10
-68.590724188834429
20
-38.983629569411278
30
0
0
SPLINE
5
135
100
AcDbEntity
8
0
100
AcDbSpline
70
0
71
2
72
6
73
3
74
0
42
0.000000001
43
0.0000000001
44
0.0000000001
40
0
40
0
40
0
40
1
40
1
40
1
10
-68.590724188834429
20
-38.983629569411278
30
0
10
-68.268759567290545
20
-38.983629569411278
30
0
10
-68.025921899825335
20
-39.113233909010887
30
0
0
SPLINE
5
136
100
AcDbEntity
8
0
100
AcDbSpline
70
0
71
2
72
6
73
3
74
0
42
0.000000001
43
0.0000000001
44
0.0000000001
40
0
40
0
40
0
40
1
40
1
40
1
10
-68.025921899825335
20
-39.113233909010887
30
0
10
-67.783084232360125
20
-39.242838248610497
30
0
10
-67.624830920249224
20
-39.487039670348167
30
0
0
SPLINE
5
137
100
AcDbEntity
8
0
100
AcDbSpline
70
0
71
2
72
6
73
3
74
0
42
0.000000001
43
0.0000000001
44
0.0000000001
40
0
40
0
40
0
40
1
40
1
40
1
10
-67.624830920249224
20
-39.487039670348167
30
0
10
-67.466577012091875
20
-39.731241688132286
30
0
10
-67.376535851508379
20
-40.08185587823391
30
0
0
SPLINE
5
138
100
AcDbEntity
8
0
100
AcDbSpline
70
0
71
2
72
6
73
3
74
0
42
0.000000001
43
0.0000000001
44
0.0000000001
40
0
40
0
40
0
40
1
40
1
40
1
10
-67.376535851508379
20
-40.08185587823391
30
0
10
-67.286494690924883
20
-40.432469472289085
30
0
10
-67.286494690924883
20
-41.027285680174828
30
0
0
SPLINE
5
139
100
AcDbEntity
8
0
100
AcDbSpline
70
0
71
2
72
6
73
3
74
0
42
0.000000001
43
0.0000000001
44
0.0000000001
40
0
40
0
40
0
40
1
40
1
40
1
10
-67.286494690924883
20
-41.027285680174828
30
0
10
-67.286494690924883
20
-41.731241568922997
30
0
10
-67.43110628798604
20
-42.163711413741112
30
0
0
SPLINE
5
140
100
AcDbEntity
8
0
100
AcDbSpline
70
0
71
2
72
6
73
3
74
0
42
0.000000001
43
0.0000000001
44
0.0000000001
40
0
40
0
40
0
40
1
40
1
40
1
10
-67.43110628798604
20
-42.163711413741112
30
0
10
-67.57571728900075
20
-42.596180066466331
30
0
10
-67.863575536757708
20
-42.832196578383446
30
0
0
SPLINE
5
141
100
AcDbEntity
8
0
100
AcDbSpline
70
0
71
2
72
6
73
3
74
0
42
0.000000001
43
0.0000000001
44
0.0000000001
40
0
40
0
40
0
40
1
40
1
40
1
10
-67.863575536757708
20
-42.832196578383446
30
0
10
-68.151433784514666
20
-43.06821309030056
30
0
10
-68.590724188834429
20
-43.06821309030056
30
0
0
SPLINE
5
142
100
AcDbEntity
8
0
100
AcDbSpline
70
0
71
2
72
6
73
3
74
0
42
0.000000001
43
0.0000000001
44
0.0000000001
40
0
40
0
40
0
40
1
40
1
40
1
10
-68.590724188834429
20
-43.06821309030056
30
0
10
-69.169168788939714
20
-43.06821309030056
30
0
10
-69.499318916350603
20
-42.65347920358181
30
0
0
SPLINE
5
143
100
AcDbEntity
8
0
100
AcDbSpline
70
0
71
2
72
6
73
3
74
0
42
0.000000001
43
0.0000000001
44
0.0000000001
40
0
40
0
40
0
40
1
40
1
40
1
10
-69.499318916350603
20
-42.65347920358181
30
0
10
-69.894953388720751
20
-42.154161557555199
30
0
10
-69.894953388720751
20
-41.027285680174828
30
0
0
SPLINE
5
144
100
AcDbEntity
8
0
100
AcDbSpline
70
0
71
2
72
6
73
3
74
0
42
0.000000001
43
0.0000000001
44
0.0000000001
40
0
40
0
40
0
40
1
40
1
40
1
10
-69.390178639441729
20
-41.027285680174828
30
0
10
-69.390178639441729
20
-42.012278661131859
30
0
10
-69.159619230777025
20
-42.338336333632469
30
0
0
SPLINE
5
145
100
AcDbEntity
8
0
100
AcDbSpline
70
0
71
2
72
6
73
3
74
0
42
0.000000001
43
0.0000000001
44
0.0000000001
40
0
40
0
40
0
40
1
40
1
40
1
10
-69.159619230777025
20
-42.338336333632469
30
0
10
-68.929059822112322
20
-42.664392814040184
30
0
10
-68.590724188834429
20
-42.664392814040184
30
0
0
SPLINE
5
146
100
AcDbEntity
8
0
100
AcDbSpline
70
0
71
2
72
6
73
3
74
0
42
0.000000001
43
0.0000000001
44
0.0000000001
40
0
40
0
40
0
40
1
40
1
40
1
10
-68.590724188834429
20
-42.664392814040184
30
0
10
-68.252388555556536
20
-42.664392814040184
30
0
10
-68.021829444915056
20
-42.336971387267113
30
0
0
SPLINE
5
147
100
AcDbEntity
8
0
100
AcDbSpline
70
0
71
2
72
6
73
3
74
0
42
0.000000001
43
0.0000000001
44
0.0000000001
40
0
40
0
40
0
40
1
40
1
40
1
10
-68.021829444915056
20
-42.336971387267113
30
0
10
-67.791269738227129
20
-42.009549960494041
30
0
10
-67.791269738227129
20
-41.027285680174828
30
0
0
SPLINE
5
148
100
AcDbEntity
8
0
100
AcDbSpline
70
0
71
2
72
6
73
3
74
0
42
0.000000001
43
0.0000000001
44
0.0000000001
40
0
40
0
40
0
40
1
40
1
40
1
10
-67.791269738227129
20
-41.027285680174828
30
0
10
-67.791269738227129
20
-40.039563998579979
30
0
10
-68.021829444915056
20
-39.714870676398277
30
0
0
SPLINE
5
149
100
AcDbEntity
8
0
100
AcDbSpline
70
0
71
2
72
6
73
3
74
0
42
0.000000001
43
0.0000000001
44
0.0000000001
40
0
40
0
40
0
40
1
40
1
40
1
10
-68.021829444915056
20
-39.714870676398277
30
0
10
-68.252388555556536
20
-39.390177354216576
30
0
10
-68.59618129208684
20
-39.390177354216576
30
0
0
SPLINE
5
150
100
AcDbEntity
8
0
100
AcDbSpline
70
0
71
2
72
6
73
3
74
0
42
0.000000001
43
0.0000000001
44
0.0000000001
40
0
40
0
40
0
40
1
40
1
40
1
10
-68.59618129208684
20
-39.390177354216576
30
0
10
-68.934516925364733
20
-39.390177354216576
30
0
10
-69.136426765471697
20
-39.676671847701073
30
0
0
SPLINE
5
151
100
AcDbEntity
8
0
100
AcDbSpline
70
0
71
2
72
6
73
3
74
0
42
0.000000001
43
0.0000000001
44
0.0000000001
40
0
40
0
40
0
40
1
40
1
40
1
10
-69.136426765471697
20
-39.676671847701073
30
0
10
-69.390178639441729
20
-40.042292699217796
30
0
10
-69.390178639441729
20
-41.027285680174828
30
0
0
LINE
5
152
100
AcDbEntity
8
0
100
AcDbLine
10
-66.978172976523638
20
-43.000000342726707
30
0
11
-65.919509846717119
21
-41.493861302733421
31
0
0
LINE
5
153
100
AcDbEntity
8
0
100
AcDbLine
10
-65.919509846717119
20
-41.493861302733421
30
0
11
-66.899046022444963
21
-40.102319344878197
31
0
0
LINE
5
154
100
AcDbEntity
8
0
100
AcDbLine
10
-66.899046022444963
20
-40.102319344878197
30
0
11
-66.285130698233843
21
-40.102319344878197
31
0
0
LINE
5
155
100
AcDbEntity
8
0
100
AcDbLine
10
-66.285130698233843
20
-40.102319344878197
30
0
11
-65.840382892638445
21
-40.7817193120718
31
0
0
SPLINE
5
156
100
AcDbEntity
8
0
100
AcDbSpline
70
0
71
2
72
6
73
3
74
0
42
0.000000001
43
0.0000000001
44
0.0000000001
40
0
40
0
40
0
40
1
40
1
40
1
10
-65.840382892638445
20
-40.7817193120718
30
0
10
-65.714871603995562
20
-40.975443944334984
30
0
10
-65.638473350554705
20
-41.106412038207054
30
0
0
SPLINE
5
157
100
AcDbEntity
8
0
100
AcDbSpline
70
0
71
2
72
6
73
3
74
0
42
0.000000001
43
0.0000000001
44
0.0000000001
40
0
40
0
40
0
40
1
40
1
40
1
10
-65.638473350554705
20
-41.106412038207054
30
0
10
-65.518418271094561
20
-40.926330909132957
30
0
10
-65.417463500052691
20
-40.787176713347435
30
0
0
LINE
5
158
100
AcDbEntity
8
0
100
AcDbLine
10
-65.417463500052691
20
-40.787176713347435
30
0
11
-64.929059464484453
21
-40.102319344878197
31
0
0
LINE
5
159
100
AcDbEntity
8
0
100
AcDbLine
10
-64.929059464484453
20
-40.102319344878197
30
0
11
-64.342429358512163
21
-40.102319344878197
31
0
0
LINE
5
160
100
AcDbEntity
8
0
100
AcDbLine
10
-64.342429358512163
20
-40.102319344878197
30
0
11
-65.343793947249651
21
-41.466575488448143
31
0
0
LINE
5
161
100
AcDbEntity
8
0
100
AcDbLine
10
-65.343793947249651
20
-41.466575488448143
30
0
11
-64.266031105071306
21
-43.000000342726707
31
0
0
LINE
5
162
100
AcDbEntity
8
0
100
AcDbLine
10
-64.266031105071306
20
-43.000000342726707
30
0
11
-64.869032818824053
21
-43.000000342726707
31
0
0
LINE
5
163
100
AcDbEntity
8
0
100
AcDbLine
10
-64.869032818824053
20
-43.000000342726707
30
0
11
-65.463848430663347
21
-42.099591121077538
31
0
0
LINE
5
164
100
AcDbEntity
8
0
100
AcDbLine
10
-65.463848430663347
20
-42.099591121077538
30
0
11
-65.622101742774248
21
-41.856753453612328
31
0
0
LINE
5
165
100
AcDbEntity
8
0
100
AcDbLine
10
-65.622101742774248
20
-41.856753453612328
30
0
11
-66.383357364684343
21
-43.000000342726707
31
0
0
LINE
5
166
100
AcDbEntity
8
0
100
AcDbLine
10
-66.383357364684343
20
-43.000000342726707
30
0
11
-66.978172976523638
21
-43.000000342726707
31
0
0
LINE
5
167
100
AcDbEntity
8
0
100
AcDbLine
10
-61.41200752928853
20
-42.527967318892479
30
0
11
-61.41200752928853
21
-43.000000342726707
31
0
0
LINE
5
168
100
AcDbEntity
8
0
100
AcDbLine
10
-61.41200752928853
20
-43.000000342726707
30
0
11
-64.055936057120562
21
-43.000000342726707
31
0
0
SPLINE
5
169
100
AcDbEntity
8
0
100
AcDbSpline
70
0
71
2
72
6
73
3
74
0
42
0.000000001
43
0.0000000001
44
0.0000000001
40
0
40
0
40
0
40
1
40
1
40
1
10
-64.055936057120562
20
-43.000000342726707
30
0
10
-64.061392862349749
20
-42.822646722197533
30
0
10
-63.998636920005083
20
-42.658936604857445
30
0
0
SPLINE
5
170
100
AcDbEntity
8
0
100
AcDbSpline
70
0
71
2
72
6
73
3
74
0
42
0.000000001
43
0.0000000001
44
0.0000000001
40
0
40
0
40
0
40
1
40
1
40
1
10
-63.998636920005083
20
-42.658936604857445
30
0
10
-63.897682148963213
20
-42.388813123106956
30
0
10
-63.675308544188738
20
-42.12687574326992
30
0
0
SPLINE
5
171
100
AcDbEntity
8
0
100
AcDbSpline
70
0
71
2
72
6
73
3
74
0
42
0.000000001
43
0.0000000001
44
0.0000000001
40
0
40
0
40
0
40
1
40
1
40
1
10
-63.675308544188738
20
-42.12687574326992
30
0
10
-63.452934343367815
20
-41.86493955552578
30
0
10
-63.032743651419878
20
-41.521145924925804
30
0
0
SPLINE
5
172
100
AcDbEntity
8
0
100
AcDbSpline
70
0
71
2
72
6
73
3
74
0
42
0.000000001
43
0.0000000001
44
0.0000000001
40
0
40
0
40
0
40
1
40
1
40
1
10
-63.032743651419878
20
-41.521145924925804
30
0
10
-62.380628306418657
20
-40.986357554793358
30
0
10
-62.151434142142534
20
-40.673943385481834
30
0
0
SPLINE
5
173
100
AcDbEntity
8
0
100
AcDbSpline
70
0
71
2
72
6
73
3
74
0
42
0.000000001
43
0.0000000001
44
0.0000000001
40
0
40
0
40
0
40
1
40
1
40
1
10
-62.151434142142534
20
-40.673943385481834
30
0
10
-61.922238785773516
20
-40.361528024077415
30
0
10
-61.922238785773516
20
-40.083219632506371
30
0
0
SPLINE
5
174
100
AcDbEntity
8
0
100
AcDbSpline
70
0
71
2
72
6
73
3
74
0
42
0.000000001
43
0.0000000001
44
0.0000000001
40
0
40
0
40
0
40
1
40
1
40
1
10
-61.922238785773516
20
-40.083219632506371
30
0
10
-61.922238785773516
20
-39.791268929839134
30
0
10
-62.130969483405352
20
-39.590723142027855
30
0
0
SPLINE
5
175
100
AcDbEntity
8
0
100
AcDbSpline
70
0
71
2
72
6
73
3
74
0
42
0.000000001
43
0.0000000001
44
0.0000000001
40
0
40
0
40
0
40
1
40
1
40
1
10
-62.130969483405352
20
-39.590723142027855
30
0
10
-62.339701373130083
20
-39.390177354216576
30
0
10
-62.675308901816607
20
-39.390177354216576
30
0
0
SPLINE
5
176
100
AcDbEntity
8
0
100
AcDbSpline
70
0
71
2
72
6
73
3
74
0
42
0.000000001
43
0.0000000001
44
0.0000000001
40
0
40
0
40
0
40
1
40
1
40
1
10
-62.675308901816607
20
-39.390177354216576
30
0
10
-63.030014950782061
20
-39.390177354216576
30
0
10
-63.24283929541707
20
-39.603001698851585
30
0
0
SPLINE
5
177
100
AcDbEntity
8
0
100
AcDbSpline
70
0
71
2
72
6
73
3
74
0
42
0.000000001
43
0.0000000001
44
0.0000000001
40
0
40
0
40
0
40
1
40
1
40
1
10
-63.24283929541707
20
-39.603001698851585
30
0
10
-63.455663044005632
20
-39.815826043486595
30
0
10
-63.45839174464345
20
-40.192360505461693
30
0
0
LINE
5
178
100
AcDbEntity
8
0
100
AcDbLine
10
-63.45839174464345
20
-40.192360505461693
30
0
11
-63.963166195899248
21
-40.140518769621849
31
0
0
SPLINE
5
179
100
AcDbEntity
8
0
100
AcDbSpline
70
0
71
2
72
6
73
3
74
0
42
0.000000001
43
0.0000000001
44
0.0000000001
40
0
40
0
40
0
40
1
40
1
40
1
10
-63.963166195899248
20
-40.140518769621849
30
0
10
-63.911324460059404
20
-39.575717076659203
30
0
10
-63.572988826781511
20
-39.279672726988792
30
0
0
SPLINE
5
180
100
AcDbEntity
8
0
100
AcDbSpline
70
0
71
2
72
6
73
3
74
0
42
0.000000001
43
0.0000000001
44
0.0000000001
40
0
40
0
40
0
40
1
40
1
40
1
10
-63.572988826781511
20
-39.279672726988792
30
0
10
-63.234653193503618
20
-38.983629569411278
30
0
10
-62.664394099265337
20
-38.983629569411278
30
0
0
SPLINE
5
181
100
AcDbEntity
8
0
100
AcDbSpline
70
0
71
2
72
6
73
3
74
0
42
0.000000001
43
0.0000000001
44
0.0000000001
40
0
40
0
40
0
40
1
40
1
40
1
10
-62.664394099265337
20
-38.983629569411278
30
0
10
-62.088677603751421
20
-38.983629569411278
30
0
10
-61.753071267157793
20
-39.302864894270897
30
0
0
SPLINE
5
182
100
AcDbEntity
8
0
100
AcDbSpline
70
0
71
2
72
6
73
3
74
0
42
0.000000001
43
0.0000000001
44
0.0000000001
40
0
40
0
40
0
40
1
40
1
40
1
10
-61.753071267157793
20
-39.302864894270897
30
0
10
-61.41746373847127
20
-39.622101411223412
30
0
10
-61.41746373847127
20
-40.09413443505764
30
0
0
SPLINE
5
183
100
AcDbEntity
8
0
100
AcDbSpline
70
0
71
2
72
6
73
3
74
0
42
0.000000001
43
0.0000000001
44
0.0000000001
40
0
40
0
40
0
40
1
40
1
40
1
10
-61.41746373847127
20
-40.09413443505764
30
0
10
-61.41746373847127
20
-40.334243401885033
30
0
10
-61.515691000968218
20
-40.566166266798973
30
0
0
SPLINE
5
184
100
AcDbEntity
8
0
100
AcDbSpline
70
0
71
2
72
6
73
3
74
0
42
0.000000001
43
0.0000000001
44
0.0000000001
40
0
40
0
40
0
40
1
40
1
40
1
10
-61.515691000968218
20
-40.566166266798973
30
0
10
-61.613917071372271
20
-40.798090323805809
30
0
10
-61.841747481375933
20
-41.05457030236721
30
0
0
SPLINE
5
185
100
AcDbEntity
8
0
100
AcDbSpline
70
0
71
2
72
6
73
3
74
0
42
0.000000001
43
0.0000000001
44
0.0000000001
40
0
40
0
40
0
40
1
40
1
40
1
10
-61.841747481375933
20
-41.05457030236721
30
0
10
-62.069577891379595
20
-41.311050280928612
30
0
10
-62.598910052329302
20
-41.758527383208275
30
0
0
SPLINE
5
186
100
AcDbEntity
8
0
100
AcDbSpline
70
0
71
2
72
6
73
3
74
0
42
0.000000001
43
0.0000000001
44
0.0000000001
40
0
40
0
40
0
40
1
40
1
40
1
10
-62.598910052329302
20
-41.758527383208275
30
0
10
-63.040928561240435
20
-42.129604443907738
30
0
10
-63.166440445929766
20
-42.261937484145164
30
0
0
SPLINE
5
187
100
AcDbEntity
8
0
100
AcDbSpline
70
0
71
2
72
6
73
3
74
0
42
0.000000001
43
0.0000000001
44
0.0000000001
40
0
40
0
40
0
40
1
40
1
40
1
10
-63.166440445929766
20
-42.261937484145164
30
0
10
-63.291952330619097
20
-42.394270524382591
30
0
10
-63.373807389289141
20
-42.527967318892479
30
0
0
LINE
5
188
100
AcDbEntity
8
0
100
AcDbLine
10
-63.373807389289141
20
-42.527967318892479
30
0
11
-61.41200752928853
21
-42.527967318892479
31
0
0
SPLINE
5
189
100
AcDbEntity
8
0
100
AcDbSpline
70
0
71
2
72
6
73
3
74
0
42
0.000000001
43
0.0000000001
44
0.0000000001
40
0
40
0
40
0
40
1
40
1
40
1
10
-60.885402876883745
20
-41.027285680174828
30
0
10
-60.885402876883745
20
-40.317872390151024
30
0
10
-60.739427525550127
20
-39.885402545332909
30
0
0
SPLINE
5
190
100
AcDbEntity
8
0
100
AcDbSpline
70
0
71
2
72
6
73
3
74
0
42
0.000000001
43
0.0000000001
44
0.0000000001
40
0
40
0
40
0
40
1
40
1
40
1
10
-60.739427525550127
20
-39.885402545332909
30
0
10
-60.593452174216509
20
-39.452933892607689
30
0
10
-60.305593926459551
20
-39.218281134963036
30
0
0
SPLINE
5
191
100
AcDbEntity
8
0
100
AcDbSpline
70
0
71
2
72
6
73
3
74
0
42
0.000000001
43
0.0000000001
44
0.0000000001
40
0
40
0
40
0
40
1
40
1
40
1
10
-60.305593926459551
20
-39.218281134963036
30
0
10
-60.017735678702593
20
-38.983629569411278
30
0
10
-59.581173378974199
20
-38.983629569411278
30
0
0
SPLINE
5
192
100
AcDbEntity
8
0
100
AcDbSpline
70
0
71
2
72
6
73
3
74
0
42
0.000000001
43
0.0000000001
44
0.0000000001
40
0
40
0
40
0
40
1
40
1
40
1
10
-59.581173378974199
20
-38.983629569411278
30
0
10
-59.259209353476763
20
-38.983629569411278
30
0
10
-59.016371686011553
20
-39.113233909010887
30
0
0
SPLINE
5
193
100
AcDbEntity
8
0
100
AcDbSpline
70
0
71
2
72
6
73
3
74
0
42
0.000000001
43
0.0000000001
44
0.0000000001
40
0
40
0
40
0
40
1
40
1
40
1
10
-59.016371686011553
20
-39.113233909010887
30
0
10
-58.773534018546343
20
-39.242838248610497
30
0
10
-58.615280110388994
20
-39.487039670348167
30
0
0
SPLINE
5
194
100
AcDbEntity
8
0
100
AcDbSpline
70
0
71
2
72
6
73
3
74
0
42
0.000000001
43
0.0000000001
44
0.0000000001
40
0
40
0
40
0
40
1
40
1
40
1
10
-58.615280110388994
20
-39.487039670348167
30
0
10
-58.457026202231646
20
-39.731241688132286
30
0
10
-58.366985041648149
20
-40.08185587823391
30
0
0
SPLINE
5
195
100
AcDbEntity
8
0
100
AcDbSpline
70
0
71
2
72
6
73
3
74
0
42
0.000000001
43
0.0000000001
44
0.0000000001
40
0
40
0
40
0
40
1
40
1
40
1
10
-58.366985041648149
20
-40.08185587823391
30
0
10
-58.276943881064653
20
-40.432469472289085
30
0
10
-58.276943881064653
20
-41.027285680174828
30
0
0
SPLINE
5
196
100
AcDbEntity
8
0
100
AcDbSpline
70
0
71
2
72
6
73
3
74
0
42
0.000000001
43
0.0000000001
44
0.0000000001
40
0
40
0
40
0
40
1
40
1
40
1
10
-58.276943881064653
20
-41.027285680174828
30
0
10
-58.276943881064653
20
-41.731241568922997
30
0
10
-58.421555478125811
20
-42.163711413741112
30
0
0
SPLINE
5
197
100
AcDbEntity
8
0
100
AcDbSpline
70
0
71
2
72
6
73
3
74
0
42
0.000000001
43
0.0000000001
44
0.0000000001
40
0
40
0
40
0
40
1
40
1
40
1
10
-58.421555478125811
20
-42.163711413741112
30
0
10
-58.566167075186968
20
-42.596180066466331
30
0
10
-58.854025322943926
20
-42.832196578383446
30
0
0
SPLINE
5
198
100
AcDbEntity
8
0
100
AcDbSpline
70
0
71
2
72
6
73
3
74
0
42
0.000000001
43
0.0000000001
44
0.0000000001
40
0
40
0
40
0
40
1
40
1
40
1
10
-58.854025322943926
20
-42.832196578383446
30
0
10
-59.141883570700884
20
-43.06821309030056
30
0
10
-59.581173378974199
20
-43.06821309030056
30
0
0
SPLINE
5
199
100
AcDbEntity
8
0
100
AcDbSpline
70
0
71
2
72
6
73
3
74
0
42
0.000000001
43
0.0000000001
44
0.0000000001
40
0
40
0
40
0
40
1
40
1
40
1
10
-59.581173378974199
20
-43.06821309030056
30
0
10
-60.159618575125933
20
-43.06821309030056
30
0
10
-60.489768702536821
20
-42.65347920358181
30
0
0
SPLINE
5
200
100
AcDbEntity
8
0
100
AcDbSpline
70
0
71
2
72
6
73
3
74
0
42
0.000000001
43
0.0000000001
44
0.0000000001
40
0
40
0
40
0
40
1
40
1
40
1
10
-60.489768702536821
20
-42.65347920358181
30
0
10
-60.885402876883745
20
-42.154161557555199
30
0
10
-60.885402876883745
20
-41.027285680174828
30
0
0
SPLINE
5
201
100
AcDbEntity
8
0
100
AcDbSpline
70
0
71
2
72
6
73
3
74
0
42
0.000000001
43
0.0000000001
44
0.0000000001
40
0
40
0
40
0
40
1
40
1
40
1
10
-60.380627829581499
20
-41.027285680174828
30
0
10
-60.380627829581499
20
-42.012278661131859
30
0
10
-60.15006871894002
20
-42.338336333632469
30
0
0
SPLINE
5
202
100
AcDbEntity
8
0
100
AcDbSpline
70
0
71
2
72
6
73
3
74
0
42
0.000000001
43
0.0000000001
44
0.0000000001
40
0
40
0
40
0
40
1
40
1
40
1
10
-60.15006871894002
20
-42.338336333632469
30
0
10
-59.91950960829854
20
-42.664392814040184
30
0
10
-59.581173378974199
20
-42.664392814040184
30
0
0
SPLINE
5
203
100
AcDbEntity
8
0
100
AcDbSpline
70
0
71
2
72
6
73
3
74
0
42
0.000000001
43
0.0000000001
44
0.0000000001
40
0
40
0
40
0
40
1
40
1
40
1
10
-59.581173378974199
20
-42.664392814040184
30
0
10
-59.242838341742754
20
-42.664392814040184
30
0
10
-59.012279231101274
20
-42.336971387267113
30
0
0
SPLINE
5
204
100
AcDbEntity
8
0
100
AcDbSpline
70
0
71
2
72
6
73
3
74
0
42
0.000000001
43
0.0000000001
44
0.0000000001
40
0
40
0
40
0
40
1
40
1
40
1
10
-59.012279231101274
20
-42.336971387267113
30
0
10
-58.781718928366899
20
-42.009549960494041
30
0
10
-58.781718928366899
20
-41.027285680174828
30
0
0
SPLINE
5
205
100
AcDbEntity
8
0
100
AcDbSpline
70
0
71
2
72
6
73
3
74
0
42
0.000000001
43
0.0000000001
44
0.0000000001
40
0
40
0
40
0
40
1
40
1
40
1
10
-58.781718928366899
20
-41.027285680174828
30
0
10
-58.781718928366899
20
-40.039563998579979
30
0
10
-59.012279231101274
20
-39.714870676398277
30
0
0
SPLINE
5
206
100
AcDbEntity
8
0
100
AcDbSpline
70
0
71
2
72
6
73
3
74
0
42
0.000000001
43
0.0000000001
44
0.0000000001
40
0
40
0
40
0
40
1
40
1
40
1
10
-59.012279231101274
20
-39.714870676398277
30
0
10
-59.242838341742754
20
-39.390177354216576
30
0
10
-59.586630780249834
20
-39.390177354216576
30
0
0
SPLINE
5
207
100
AcDbEntity
8
0
100
AcDbSpline
70
0
71
2
72
6
73
3
74
0
42
0.000000001
43
0.0000000001
44
0.0000000001
40
0
40
0
40
0
40
1
40
1
40
1
10
-59.586630780249834
20
-39.390177354216576
30
0
10
-59.924965817481279
20
-39.390177354216576
30
0
10
-60.126876551657915
20
-39.676671847701073
30
0
0
SPLINE
5
208
100
AcDbEntity
8
0
100
AcDbSpline
70
0
71
2
72
6
73
3
74
0
42
0.000000001
43
0.0000000001
44
0.0000000001
40
0
40
0
40
0
40
1
40
1
40
1
10
-60.126876551657915
20
-39.676671847701073
30
0
10
-60.380627829581499
20
-40.042292699217796
30
0
10
-60.380627829581499
20
-41.027285680174828
30
0
0
LINE
5
209
100
AcDbEntity
8
0
100
AcDbLine
10
-57.641201931983232
20
-43.000000342726707
30
0
11
-57.641201931983232
21
-40.102319344878197
31
0
0
LINE
5
210
100
AcDbEntity
8
0
100
AcDbLine
10
-57.641201931983232
20
-40.102319344878197
30
0
11
-57.201910931617022
21
-40.102319344878197
31
0
0
LINE
5
211
100
AcDbEntity
8
0
100
AcDbLine
10
-57.201910931617022
20
-40.102319344878197
30
0
11
-57.201910931617022
21
-40.50886832177639
31
0
0
SPLINE
5
212
100
AcDbEntity
8
0
100
AcDbSpline
70
0
71
2
72
6
73
3
74
0
42
0.000000001
43
0.0000000001
44
0.0000000001
40
0
40
0
40
0
40
1
40
1
40
1
10
-57.201910931617022
20
-40.50886832177639
30
0
10
-57.065485436469316
20
-40.29604397714138
30
0
10
-56.839018780738115
20
-40.166439637541771
30
0
0
SPLINE
5
213
100
AcDbEntity
8
0
100
AcDbSpline
70
0
71
2
72
6
73
3
74
0
42
0.000000001
43
0.0000000001
44
0.0000000001
40
0
40
0
40
0
40
1
40
1
40
1
10
-56.839018780738115
20
-40.166439637541771
30
0
10
-56.612552125006914
20
-40.036835297942162
30
0
10
-56.323330122977495
20
-40.036835297942162
30
0
0
SPLINE
5
214
100
AcDbEntity
8
0
100
AcDbSpline
70
0
71
2
72
6
73
3
74
0
42
0.000000001
43
0.0000000001
44
0.0000000001
40
0
40
0
40
0
40
1
40
1
40
1
10
-56.323330122977495
20
-40.036835297942162
30
0
10
-56.001366097480059
20
-40.036835297942162
30
0
10
-55.795362908393145
20
-40.170532092452049
30
0
0
SPLINE
5
215
100
AcDbEntity
8
0
100
AcDbSpline
70
0
71
2
72
6
73
3
74
0
42
0.000000001
43
0.0000000001
44
0.0000000001
40
0
40
0
40
0
40
1
40
1
40
1
10
-55.795362908393145
20
-40.170532092452049
30
0
10
-55.589359719306231
20
-40.304230079054832
30
0
10
-55.504775959998369
20
-40.544339045882225
30
0
0
SPLINE
5
216
100
AcDbEntity
8
0
100
AcDbSpline
70
0
71
2
72
6
73
3
74
0
42
0.000000001
43
0.0000000001
44
0.0000000001
40
0
40
0
40
0
40
1
40
1
40
1
10
-55.504775959998369
20
-40.544339045882225
30
0
10
-55.160983521491289
20
-40.036835297942162
30
0
10
-54.609824139624834
20
-40.036835297942162
30
0
0
SPLINE
5
217
100
AcDbEntity
8
0
100
AcDbSpline
70
0
71
2
72
6
73
3
74
0
42
0.000000001
43
0.0000000001
44
0.0000000001
40
0
40
0
40
0
40
1
40
1
40
1
10
-54.609824139624834
20
-40.036835297942162
30
0
10
-54.178719241172075
20
-40.036835297942162
30
0
10
-53.946795184165239
20
-40.275580510497093
30
0
0
SPLINE
5
218
100
AcDbEntity
8
0
100
AcDbSpline
70
0
71
2
72
6
73
3
74
0
42
0.000000001
43
0.0000000001
44
0.0000000001
40
0
40
0
40
0
40
1
40
1
40
1
10
-53.946795184165239
20
-40.275580510497093
30
0
10
-53.714871127158403
20
-40.514324530959129
30
0
10
-53.714871127158403
20
-41.010914668440819
30
0
0
LINE
5
219
100
AcDbEntity
8
0
100
AcDbLine
10
-53.714871127158403
20
-41.010914668440819
30
0
11
-53.714871127158403
21
-43.000000342726707
31
0
0
LINE
5
220
100
AcDbEntity
8
0
100
AcDbLine
10
-53.714871127158403
20
-43.000000342726707
30
0
11
-54.203276354819536
21
-43.000000342726707
31
0
0
LINE
5
221
100
AcDbEntity
8
0
100
AcDbLine
10
-54.203276354819536
20
-43.000000342726707
30
0
11
-54.203276354819536
21
-41.174624785780907
31
0
0
SPLINE
5
222
100
AcDbEntity
8
0
100
AcDbSpline
70
0
71
2
72
6
73
3
74
0
42
0.000000001
43
0.0000000001
44
0.0000000001
40
0
40
0
40
0
40
1
40
1
40
1
10
-54.203276354819536
20
-41.174624785780907
30
0
10
-54.203276354819536
20
-40.879945382475853
30
0
10
-54.251024443656206
20
-40.750341042876244
30
0
0
SPLINE
5
223
100
AcDbEntity
8
0
100
AcDbSpline
70
0
71
2
72
6
73
3
74
0
42
0.000000001
43
0.0000000001
44
0.0000000001
40
0
40
0
40
0
40
1
40
1
40
1
10
-54.251024443656206
20
-40.750341042876244
30
0
10
-54.298773724585772
20
-40.620736703276634
30
0
10
-54.424285609275103
20
-40.541610345244408
30
0
0
SPLINE
5
224
100
AcDbEntity
8
0
100
AcDbSpline
70
0
71
2
72
6
73
3
74
0
42
0.000000001
43
0.0000000001
44
0.0000000001
40
0
40
0
40
0
40
1
40
1
40
1
10
-54.424285609275103
20
-40.541610345244408
30
0
10
-54.549796301871538
20
-40.462482795119286
30
0
10
-54.718965012580156
20
-40.462482795119286
30
0
0
SPLINE
5
225
100
AcDbEntity
8
0
100
AcDbSpline
70
0
71
2
72
6
73
3
74
0
42
0.000000001
43
0.0000000001
44
0.0000000001
40
0
40
0
40
0
40
1
40
1
40
1
10
-54.718965012580156
20
-40.462482795119286
30
0
10
-55.024558026343584
20
-40.462482795119286
30
0
10
-55.226467568427324
20
-40.665757283568382
30
0
0
SPLINE
5
226
100
AcDbEntity
8
0
100
AcDbSpline
70
0
71
2
72
6
73
3
74
0
42
0.000000001
43
0.0000000001
44
0.0000000001
40
0
40
0
40
0
40
1
40
1
40
1
10
-55.226467568427324
20
-40.665757283568382
30
0
10
-55.42837830260396
20
-40.869031772017479
30
0
10
-55.42837830260396
20
-41.316507682204247
30
0
0
LINE
5
227
100
AcDbEntity
8
0
100
AcDbLine
10
-55.42837830260396
20
-41.316507682204247
30
0
11
-55.42837830260396
21
-43.000000342726707
31
0
0
LINE
5
228
100
AcDbEntity
8
0
100
AcDbLine
10
-55.42837830260396
20
-43.000000342726707
30
0
11
-55.919509846717119
21
-43.000000342726707
31
0
0
LINE
5
229
100
AcDbEntity
8
0
100
AcDbLine
10
-55.919509846717119
20
-43.000000342726707
30
0
11
-55.919509846717119
21
-41.117326840758324
31
0
0
SPLINE
5
230
100
AcDbEntity
8
0
100
AcDbSpline
70
0
71
2
72
6
73
3
74
0
42
0.000000001
43
0.0000000001
44
0.0000000001
40
0
40
0
40
0
40
1
40
1
40
1
10
-55.919509846717119
20
-41.117326840758324
30
0
10
-55.919509846717119
20
-40.789905413985252
30
0
10
-56.039564330130816
20
-40.626194104552269
30
0
0
SPLINE
5
231
100
AcDbEntity
8
0
100
AcDbSpline
70
0
71
2
72
6
73
3
74
0
42
0.000000001
43
0.0000000001
44
0.0000000001
40
0
40
0
40
0
40
1
40
1
40
1
10
-56.039564330130816
20
-40.626194104552269
30
0
10
-56.159620005637407
20
-40.462482795119286
30
0
10
-56.432470995932817
20
-40.462482795119286
30
0
0
SPLINE
5
232
100
AcDbEntity
8
0
100
AcDbSpline
70
0
71
2
72
6
73
3
74
0
42
0.000000001
43
0.0000000001
44
0.0000000001
40
0
40
0
40
0
40
1
40
1
40
1
10
-56.432470995932817
20
-40.462482795119286
30
0
10
-56.639837939292192
20
-40.462482795119286
30
0
10
-56.815826613456011
20
-40.571623668074608
30
0
0
SPLINE
5
233
100
AcDbEntity
8
0
100
AcDbSpline
70
0
71
2
72
6
73
3
74
0
42
0.000000001
43
0.0000000001
44
0.0000000001
40
0
40
0
40
0
40
1
40
1
40
1
10
-56.815826613456011
20
-40.571623668074608
30
0
10
-56.991815287619829
20
-40.68076454102993
30
0
10
-57.070942837744951
20
-40.890860185027122
30
0
0
SPLINE
5
234
100
AcDbEntity
8
0
100
AcDbSpline
70
0
71
2
72
6
73
3
74
0
42
0.000000001
43
0.0000000001
44
0.0000000001
40
0
40
0
40
0
40
1
40
1
40
1
10
-57.070942837744951
20
-40.890860185027122
30
0
10
-57.150069195777178
20
-41.100955829024315
30
0
10
-57.150069195777178
20
-41.496590003371239
30
0
0
LINE
5
235
100
AcDbEntity
8
0
100
AcDbLine
10
-57.150069195777178
20
-41.496590003371239
30
0
11
-57.150069195777178
21
-43.000000342726707
31
0
0
LINE
5
236
100
AcDbEntity
8
0
100
AcDbLine
10
-57.150069195777178
20
-43.000000342726707
30
0
11
-57.641201931983232
21
-43.000000342726707
31
0
0
LINE
5
237
100
AcDbEntity
8
0
100
AcDbLine
10
-52.986359316855669
20
-43.000000342726707
30
0
11
-52.986359316855669
21
-40.102319344878197
31
0
0
LINE
5
238
100
AcDbEntity
8
0
100
AcDbLine
10
-52.986359316855669
20
-40.102319344878197
30
0
11
-52.547068316489458
21
-40.102319344878197
31
0
0
LINE
5
239
100
AcDbEntity
8
0
100
AcDbLine
10
-52.547068316489458
20
-40.102319344878197
30
0
11
-52.547068316489458
21
-40.50886832177639
31
0
0
SPLINE
5
240
100
AcDbEntity
8
0
100
AcDbSpline
70
0
71
2
72
6
73
3
74
0
42
0.000000001
43
0.0000000001
44
0.0000000001
40
0
40
0
40
0
40
1
40
1
40
1
10
-52.547068316489458
20
-40.50886832177639
30
0
10
-52.410642821341753
20
-40.29604397714138
30
0
10
-52.184176165610552
20
-40.166439637541771
30
0
0
SPLINE
5
241
100
AcDbEntity
8
0
100
AcDbSpline
70
0
71
2
72
6
73
3
74
0
42
0.000000001
43
0.0000000001
44
0.0000000001
40
0
40
0
40
0
40
1
40
1
40
1
10
-52.184176165610552
20
-40.166439637541771
30
0
10
-51.957709509879351
20
-40.036835297942162
30
0
10
-51.668486315757036
20
-40.036835297942162
30
0
0
SPLINE
5
242
100
AcDbEntity
8
0
100
AcDbSpline
70
0
71
2
72
6
73
3
74
0
42
0.000000001
43
0.0000000001
44
0.0000000001
40
0
40
0
40
0
40
1
40
1
40
1
10
-51.668486315757036
20
-40.036835297942162
30
0
10
-51.346523482352495
20
-40.036835297942162
30
0
10
-51.140520293265581
20
-40.170532092452049
30
0
0
SPLINE
5
243
100
AcDbEntity
8
0
100
AcDbSpline
70
0
71
2
72
6
73
3
74
0
42
0.000000001
43
0.0000000001
44
0.0000000001
40
0
40
0
40
0
40
1
40
1
40
1
10
-51.140520293265581
20
-40.170532092452049
30
0
10
-50.934517104178667
20
-40.304230079054832
30
0
10
-50.849933344870806
20
-40.544339045882225
30
0
0
SPLINE
5
244
100
AcDbEntity
8
0
100
AcDbSpline
70
0
71
2
72
6
73
3
74
0
42
0.000000001
43
0.0000000001
44
0.0000000001
40
0
40
0
40
0
40
1
40
1
40
1
10
-50.849933344870806
20
-40.544339045882225
30
0
10
-50.506140906363726
20
-40.036835297942162
30
0
10
-49.954981524497271
20
-40.036835297942162
30
0
0
SPLINE
5
245
100
AcDbEntity
8
0
100
AcDbSpline
70
0
71
2
72
6
73
3
74
0
42
0.000000001
43
0.0000000001
44
0.0000000001
40
0
40
0
40
0
40
1
40
1
40
1
10
-49.954981524497271
20
-40.036835297942162
30
0
10
-49.523875433951616
20
-40.036835297942162
30
0
10
-49.291953761130571
20
-40.275580510497093
30
0
0
SPLINE
5
246
100
AcDbEntity
8
0
100
AcDbSpline
70
0
71
2
72
6
73
3
74
0
42
0.000000001
43
0.0000000001
44
0.0000000001
40
0
40
0
40
0
40
1
40
1
40
1
10
-49.291953761130571
20
-40.275580510497093
30
0
10
-49.060029704123735
20
-40.514324530959129
30
0
10
-49.060029704123735
20
-41.010914668440819
30
0
0
LINE
5
247
100
AcDbEntity
8
0
100
AcDbLine
10
-49.060029704123735
20
-41.010914668440819
30
0
11
-49.060029704123735
21
-43.000000342726707
31
0
0
LINE
5
248
100
AcDbEntity
8
0
100
AcDbLine
10
-49.060029704123735
20
-43.000000342726707
30
0
11
-49.548432547599077
21
-43.000000342726707
31
0
0
LINE
5
249
100
AcDbEntity
8
0
100
AcDbLine
10
-49.548432547599077
20
-43.000000342726707
30
0
11
-49.548432547599077
21
-41.174624785780907
31
0
0
SPLINE
5
250
100
AcDbEntity
8
0
100
AcDbSpline
70
0
71
2
72
6
73
3
74
0
42
0.000000001
43
0.0000000001
44
0.0000000001
40
0
40
0
40
0
40
1
40
1
40
1
10
-49.548432547599077
20
-41.174624785780907
30
0
10
-49.548432547599077
20
-40.879945382475853
30
0
10
-49.596183020621538
20
-40.750341042876244
30
0
0
SPLINE
5
251
100
AcDbEntity
8
0
100
AcDbSpline
70
0
71
2
72
6
73
3
74
0
42
0.000000001
43
0.0000000001
44
0.0000000001
40
0
40
0
40
0
40
1
40
1
40
1
10
-49.596183020621538
20
-40.750341042876244
30
0
10
-49.643931109458208
20
-40.620736703276634
30
0
10
-49.769441802054644
20
-40.541610345244408
30
0
0
SPLINE
5
252
100
AcDbEntity
8
0
100
AcDbSpline
70
0
71
2
72
6
73
3
74
0
42
0.000000001
43
0.0000000001
44
0.0000000001
40
0
40
0
40
0
40
1
40
1
40
1
10
-49.769441802054644
20
-40.541610345244408
30
0
10
-49.89495487883687
20
-40.462482795119286
30
0
10
-50.064122397452593
20
-40.462482795119286
30
0
0
SPLINE
5
253
100
AcDbEntity
8
0
100
AcDbSpline
70
0
71
2
72
6
73
3
74
0
42
0.000000001
43
0.0000000001
44
0.0000000001
40
0
40
0
40
0
40
1
40
1
40
1
10
-50.064122397452593
20
-40.462482795119286
30
0
10
-50.369715411216021
20
-40.462482795119286
30
0
10
-50.571624953299761
20
-40.665757283568382
30
0
0
SPLINE
5
254
100
AcDbEntity
8
0
100
AcDbSpline
70
0
71
2
72
6
73
3
74
0
42
0.000000001
43
0.0000000001
44
0.0000000001
40
0
40
0
40
0
40
1
40
1
40
1
10
-50.571624953299761
20
-40.665757283568382
30
0
10
-50.773534495383501
20
-40.869031772017479
30
0
10
-50.773534495383501
20
-41.316507682204247
30
0
0
LINE
5
255
100
AcDbEntity
8
0
100
AcDbLine
10
-50.773534495383501
20
-41.316507682204247
30
0
11
-50.773534495383501
21
-43.000000342726707
31
0
0
LINE
5
256
100
AcDbEntity
8
0
100
AcDbLine
10
-50.773534495383501
20
-43.000000342726707
30
0
11
-51.264667231589556
21
-43.000000342726707
31
0
0
LINE
5
257
100
AcDbEntity
8
0
100
AcDbLine
10
-51.264667231589556
20
-43.000000342726707
30
0
11
-51.264667231589556
21
-41.117326840758324
31
0
0
SPLINE
5
258
100
AcDbEntity
8
0
100
AcDbSpline
70
0
71
2
72
6
73
3
74
0
42
0.000000001
43
0.0000000001
44
0.0000000001
40
0
40
0
40
0
40
1
40
1
40
1
10
-51.264667231589556
20
-41.117326840758324
30
0
10
-51.264667231589556
20
-40.789905413985252
30
0
10
-51.384722907096148
20
-40.626194104552269
30
0
0
SPLINE
5
259
100
AcDbEntity
8
0
100
AcDbSpline
70
0
71
2
72
6
73
3
74
0
42
0.000000001
43
0.0000000001
44
0.0000000001
40
0
40
0
40
0
40
1
40
1
40
1
10
-51.384722907096148
20
-40.626194104552269
30
0
10
-51.504776198416948
20
-40.462482795119286
30
0
10
-51.777627188712358
20
-40.462482795119286
30
0
0
SPLINE
5
260
100
AcDbEntity
8
0
100
AcDbSpline
70
0
71
2
72
6
73
3
74
0
42
0.000000001
43
0.0000000001
44
0.0000000001
40
0
40
0
40
0
40
1
40
1
40
1
10
-51.777627188712358
20
-40.462482795119286
30
0
10
-51.984994132071733
20
-40.462482795119286
30
0
10
-52.160985190421343
20
-40.571623668074608
30
0
0
SPLINE
5
261
100
AcDbEntity
8
0
100
AcDbSpline
70
0
71
2
72
6
73
3
74
0
42
0.000000001
43
0.0000000001
44
0.0000000001
40
0
40
0
40
0
40
1
40
1
40
1
10
-52.160985190421343
20
-40.571623668074608
30
0
10
-52.336973864585161
20
-40.68076454102993
30
0
10
-52.416100222617388
20
-40.890860185027122
30
0
0
SPLINE
5
262
100
AcDbEntity
8
0
100
AcDbSpline
70
0
71
2
72
6
73
3
74
0
42
0.000000001
43
0.0000000001
44
0.0000000001
40
0
40
0
40
0
40
1
40
1
40
1
10
-52.416100222617388
20
-40.890860185027122
30
0
10
-52.495226580649614
20
-41.100955829024315
30
0
10
-52.495226580649614
20
-41.496590003371239
30
0
0
LINE
5
263
100
AcDbEntity
8
0
100
AcDbLine
10
-52.495226580649614
20
-41.496590003371239
30
0
11
-52.495226580649614
21
-43.000000342726707
31
0
0
LINE
5
264
100
AcDbEntity
8
0
100
AcDbLine
10
-52.495226580649614
20
-43.000000342726707
30
0
11
-52.986359316855669
21
-43.000000342726707
31
0
0
ENDSEC
0
SECTION
2
OBJECTS
0
DICTIONARY
5
C
100
AcDbDictionary
3
ACAD_GROUP
350
D
3
ACAD_MLINESTYLE
350
17
0
DICTIONARY
5
D
100
AcDbDictionary
0
DICTIONARY
5
1A
330
C
100
AcDbDictionary
0
DICTIONARY
5
17
100
AcDbDictionary
0
ENDSEC
0
EOF
