0
SECTION
2
HEADER
9
$INSUNITS
70
4
9
$ACADVER
1
AC1014
9
$HANDSEED
5
FFFF
0
ENDSEC
0
SECTION
2
TABLES
0
TABLE
2
VPORT
5
8
100
AcDbSymbolTable
0
ENDTAB
0
TABLE
2
LTYPE
5
5
100
AcDbSymbolTable
0
LTYPE
5
14
100
AcDbSymbolTableRecord
100
AcDbLinetypeTableRecord
2
BYBLOCK
70
0
0
LTYPE
5
15
100
AcDbSymbolTableRecord
100
AcDbLinetypeTableRecord
2
BYLAYER
70
0
0
ENDTAB
0
TABLE
2
LAYER
5
2
100
AcDbSymbolTable
70
2
0
LAYER
5
50
100
AcDbSymbolTableRecord
100
AcDbLayerTableRecord
2
0
70
0
6
CONTINUOUS
0
ENDTAB
0
TABLE
2
STYLE
5
3
100
AcDbSymbolTable
70
1
0
STYLE
5
11
100
AcDbSymbolTableRecord
100
AcDbTextStyleTableRecord
2
STANDARD
70
0
0
ENDTAB
0
TABLE
2
VIEW
5
6
100
AcDbSymbolTable
70
0
0
ENDTAB
0
TABLE
2
UCS
5
7
100
AcDbSymbolTable
70
0
0
ENDTAB
0
TABLE
2
APPID
5
9
100
AcDbSymbolTable
70
2
0
APPID
5
12
100
AcDbSymbolTableRecord
100
AcDbRegAppTableRecord
2
ACAD
70
0
0
ENDTAB
0
TABLE
2
DIMSTYLE
5
A
100
AcDbSymbolTable
70
1
0
ENDTAB
0
TABLE
2
BLOCK_RECORD
5
1
100
AcDbSymbolTable
70
1
0
BLOCK_RECORD
5
1F
100
AcDbSymbolTableRecord
100
AcDbBlockTableRecord
2
*MODEL_SPACE
0
BLOCK_RECORD
5
1B
100
AcDbSymbolTableRecord
100
AcDbBlockTableRecord
2
*PAPER_SPACE
0
ENDTAB
0
ENDSEC
0
SECTION
2
BLOCKS
0
BLOCK
5
20
100
AcDbEntity
100
AcDbBlockBegin
2
*MODEL_SPACE
0
ENDBLK
5
21
100
AcDbEntity
100
AcDbBlockEnd
0
BLOCK
5
1C
100
AcDbEntity
100
AcDbBlockBegin
2
*PAPER_SPACE
0
ENDBLK
5
1D
100
AcDbEntity
100
AcDbBlockEnd
0
ENDSEC
0
SECTION
2
ENTITIES
0
LWPOLYLINE
5
100
100
AcDbEntity
8
0
100
AcDbPolyline
90
4
70
1
43
0.0
10
0
20
7.0000000000000009
10
40
20
7.0000000000000009
10
40
20
0
10
0
20
0
0
CIRCLE
5
101
100
AcDbEntity
8
0
100
AcDbCircle
10
13.333333333333332
20
3.5000000000000009
30
0
40
1.2500000000000004
210
0
220
0
230
1
0
CIRCLE
5
102
100
AcDbEntity
8
0
100
AcDbCircle
10
26.666666666666664
20
3.5000000000000004
30
0
40
1.2499999999999991
210
0
220
0
230
1
0
LWPOLYLINE
5
103
100
AcDbEntity
8
0
100
AcDbPolyline
90
4
70
1
43
0.0
10
-73.000001087784767
20
8.9999992400407791
10
-43.000001087784767
20
8.9999992400407791
10
-43.000001087784767
20
28.999999240040779
10
-73.000001087784767
20
28.999999240040779
0
LINE
5
104
100
AcDbEntity
8
0
100
AcDbLine
10
-73.000001087784767
20
18.055934086441994
30
0
11
-72.508868742734194
21
18.121418133378029
31
0
0
SPLINE
5
105
100
AcDbEntity
8
0
100
AcDbSpline
70
0
71
2
72
6
73
3
74
0
42
0.000000001
43
0.0000000001
44
0.0000000001
40
0
40
0
40
0
40
1
40
1
40
1
10
-72.508868742734194
20
18.121418133378029
30
0
10
-72.424284834414721
20
17.703955546021461
30
0
10
-72.221010643988848
20
17.519780769944191
30
0
0
SPLINE
5
106
100
AcDbEntity
8
0
100
AcDbSpline
70
0
71
2
72
6
73
3
74
0
42
0.000000001
43
0.0000000001
44
0.0000000001
40
0
40
0
40
0
40
1
40
1
40
1
10
-72.221010643988848
20
17.519780769944191
30
0
10
-72.017736453562975
20
17.335607185959816
30
0
10
-71.725785452872515
20
17.335607185959816
30
0
0
SPLINE
5
107
100
AcDbEntity
8
0
100
AcDbSpline
70
0
71
2
72
6
73
3
74
0
42
0.000000001
43
0.0000000001
44
0.0000000001
40
0
40
0
40
0
40
1
40
1
40
1
10
-71.725785452872515
20
17.335607185959816
30
0
10
-71.379264313727617
20
17.335607185959816
30
0
10
-71.140519548207521
20
17.575716152787209
30
0
0
SPLINE
5
108
100
AcDbEntity
8
0
100
AcDbSpline
70
0
71
2
72
6
73
3
74
0
42
0.000000001
43
0.0000000001
44
0.0000000001
40
0
40
0
40
0
40
1
40
1
40
1
10
-71.140519548207521
20
17.575716152787209
30
0
10
-70.901774633675814
20
17.815825119614601
30
0
10
-70.901774633675814
20
18.170532360672951
30
0
0
SPLINE
5
109
100
AcDbEntity
8
0
100
AcDbSpline
70
0
71
2
72
6
73
3
74
0
42
0.000000001
43
0.0000000001
44
0.0000000001
40
0
40
0
40
0
40
1
40
1
40
1
10
-70.901774633675814
20
18.170532360672951
30
0
10
-70.901774633675814
20
18.508867397904396
30
0
10
-71.122784186154604
20
18.728512898087502
30
0
0
SPLINE
5
110
100
AcDbEntity
8
0
100
AcDbSpline
70
0
71
2
72
6
73
3
74
0
42
0.000000001
43
0.0000000001
44
0.0000000001
40
0
40
0
40
0
40
1
40
1
40
1
10
-71.122784186154604
20
18.728512898087502
30
0
10
-71.343793738633394
20
18.948158398270607
30
0
10
-71.684857774525881
20
18.948158398270607
30
0
0
SPLINE
5
111
100
AcDbEntity
8
0
100
AcDbSpline
70
0
71
2
72
6
73
3
74
0
42
0.000000001
43
0.0000000001
44
0.0000000001
40
0
40
0
40
0
40
1
40
1
40
1
10
-71.684857774525881
20
18.948158398270607
30
0
10
-71.824011970311403
20
18.948158398270607
30
0
10
-72.031378988176584
20
18.893587961792946
30
0
0
LINE
5
112
100
AcDbEntity
8
0
100
AcDbLine
10
-72.031378988176584
20
18.893587961792946
30
0
11
-71.976808775216341
21
19.324692860245705
31
0
0
SPLINE
5
113
100
AcDbEntity
8
0
100
AcDbSpline
70
0
71
2
72
6
73
3
74
0
42
0.000000001
43
0.0000000001
44
0.0000000001
40
0
40
0
40
0
40
1
40
1
40
1
10
-71.976808775216341
20
19.324692860245705
30
0
10
-71.927695441991091
20
19.31923545897007
30
0
10
-71.897681821137667
20
19.31923545897007
30
0
0
SPLINE
5
114
100
AcDbEntity
8
0
100
AcDbSpline
70
0
71
2
72
6
73
3
74
0
42
0.000000001
43
0.0000000001
44
0.0000000001
40
0
40
0
40
0
40
1
40
1
40
1
10
-71.897681821137667
20
19.31923545897007
30
0
10
-71.583902854472399
20
19.31923545897007
30
0
10
-71.332879681140184
20
19.482946768403053
30
0
0
SPLINE
5
115
100
AcDbEntity
8
0
100
AcDbSpline
70
0
71
2
72
6
73
3
74
0
42
0.000000001
43
0.0000000001
44
0.0000000001
40
0
40
0
40
0
40
1
40
1
40
1
10
-71.332879681140184
20
19.482946768403053
30
0
10
-71.08185650780797
20
19.646656885743141
30
0
10
-71.08185650780797
20
19.987720623612404
30
0
0
SPLINE
5
116
100
AcDbEntity
8
0
100
AcDbSpline
70
0
71
2
72
6
73
3
74
0
42
0.000000001
43
0.0000000001
44
0.0000000001
40
0
40
0
40
0
40
1
40
1
40
1
10
-71.08185650780797
20
19.987720623612404
30
0
10
-71.08185650780797
20
20.257844105362892
30
0
10
-71.26466678455472
20
20.435197725892067
30
0
0
SPLINE
5
117
100
AcDbEntity
8
0
100
AcDbSpline
70
0
71
2
72
6
73
3
74
0
42
0.000000001
43
0.0000000001
44
0.0000000001
40
0
40
0
40
0
40
1
40
1
40
1
10
-71.26466678455472
20
20.435197725892067
30
0
10
-71.447477210313082
20
20.612550750374794
30
0
10
-71.736699510365725
20
20.612550750374794
30
0
0
SPLINE
5
118
100
AcDbEntity
8
0
100
AcDbSpline
70
0
71
2
72
6
73
3
74
0
42
0.000000001
43
0.0000000001
44
0.0000000001
40
0
40
0
40
0
40
1
40
1
40
1
10
-71.736699510365725
20
20.612550750374794
30
0
10
-72.02319348230958
20
20.612550750374794
30
0
10
-72.214189413934946
20
20.43246902525425
30
0
0
SPLINE
5
119
100
AcDbEntity
8
0
100
AcDbSpline
70
0
71
2
72
6
73
3
74
0
42
0.000000001
43
0.0000000001
44
0.0000000001
40
0
40
0
40
0
40
1
40
1
40
1
10
-72.214189413934946
20
20.43246902525425
30
0
10
-72.405185271054506
20
20.252386704087257
30
0
10
-72.459755558520555
20
19.892223253846169
30
0
0
LINE
5
120
100
AcDbEntity
8
0
100
AcDbLine
10
-72.459755558520555
20
19.892223253846169
30
0
11
-72.950887847691774
21
19.979535713791847
31
0
0
SPLINE
5
121
100
AcDbEntity
8
0
100
AcDbSpline
70
0
71
2
72
6
73
3
74
0
42
0.000000001
43
0.0000000001
44
0.0000000001
40
0
40
0
40
0
40
1
40
1
40
1
10
-72.950887847691774
20
19.979535713791847
30
0
10
-72.860846910625696
20
20.473396554589272
30
0
10
-72.541610915213823
20
20.744883194565773
30
0
0
SPLINE
5
122
100
AcDbEntity
8
0
100
AcDbSpline
70
0
71
2
72
6
73
3
74
0
42
0.000000001
43
0.0000000001
44
0.0000000001
40
0
40
0
40
0
40
1
40
1
40
1
10
-72.541610915213823
20
20.744883194565773
30
0
10
-72.22237491980195
20
21.016370430588722
30
0
10
-71.747613567858934
20
21.016370430588722
30
0
0
SPLINE
5
123
100
AcDbEntity
8
0
100
AcDbSpline
70
0
71
2
72
6
73
3
74
0
42
0.000000001
43
0.0000000001
44
0.0000000001
40
0
40
0
40
0
40
1
40
1
40
1
10
-71.747613567858934
20
21.016370430588722
30
0
10
-71.420191992074251
20
21.016370430588722
30
0
10
-71.144612301141024
20
20.875852480530739
30
0
0
SPLINE
5
124
100
AcDbEntity
8
0
100
AcDbSpline
70
0
71
2
72
6
73
3
74
0
42
0.000000001
43
0.0000000001
44
0.0000000001
40
0
40
0
40
0
40
1
40
1
40
1
10
-71.144612301141024
20
20.875852480530739
30
0
10
-70.869032461196184
20
20.73533333837986
30
0
10
-70.723057109862566
20
20.49249567091465
30
0
0
SPLINE
5
125
100
AcDbEntity
8
0
100
AcDbSpline
70
0
71
2
72
6
73
3
74
0
42
0.000000001
43
0.0000000001
44
0.0000000001
40
0
40
0
40
0
40
1
40
1
40
1
10
-70.723057109862566
20
20.49249567091465
30
0
10
-70.577081758528948
20
20.24965800344944
30
0
10
-70.577081758528948
20
19.97680701315403
30
0
0
SPLINE
5
126
100
AcDbEntity
8
0
100
AcDbSpline
70
0
71
2
72
6
73
3
74
0
42
0.000000001
43
0.0000000001
44
0.0000000001
40
0
40
0
40
0
40
1
40
1
40
1
10
-70.577081758528948
20
19.97680701315403
30
0
10
-70.577081758528948
20
19.717598333954811
30
0
10
-70.716235656291246
20
19.504773989319801
30
0
0
SPLINE
5
127
100
AcDbEntity
8
0
100
AcDbSpline
70
0
71
2
72
6
73
3
74
0
42
0.000000001
43
0.0000000001
44
0.0000000001
40
0
40
0
40
0
40
1
40
1
40
1
10
-70.716235656291246
20
19.504773989319801
30
0
10
-70.855389852076769
20
19.291950836777687
30
0
10
-71.128241140395403
20
19.166438952088356
30
0
0
SPLINE
5
128
100
AcDbEntity
8
0
100
AcDbSpline
70
0
71
2
72
6
73
3
74
0
42
0.000000001
43
0.0000000001
44
0.0000000001
40
0
40
0
40
0
40
1
40
1
40
1
10
-71.128241140395403
20
19.166438952088356
30
0
10
-70.773534495383501
20
19.084583893418312
30
0
10
-70.577081758528948
20
18.826738968491554
30
0
0
SPLINE
5
129
100
AcDbEntity
8
0
100
AcDbSpline
70
0
71
2
72
6
73
3
74
0
42
0.000000001
43
0.0000000001
44
0.0000000001
40
0
40
0
40
0
40
1
40
1
40
1
10
-70.577081758528948
20
18.826738968491554
30
0
10
-70.380628723651171
20
18.568894043564796
30
0
10
-70.380628723651171
20
18.181445971131325
30
0
0
SPLINE
5
130
100
AcDbEntity
8
0
100
AcDbSpline
70
0
71
2
72
6
73
3
74
0
42
0.000000001
43
0.0000000001
44
0.0000000001
40
0
40
0
40
0
40
1
40
1
40
1
10
-70.380628723651171
20
18.181445971131325
30
0
10
-70.380628723651171
20
17.657571211457253
30
0
10
-70.762620437890291
20
17.293315306305885
30
0
0
SPLINE
5
131
100
AcDbEntity
8
0
100
AcDbSpline
70
0
71
2
72
6
73
3
74
0
42
0.000000001
43
0.0000000001
44
0.0000000001
40
0
40
0
40
0
40
1
40
1
40
1
10
-70.762620437890291
20
17.293315306305885
30
0
10
-71.144612301141024
20
16.929058209061623
30
0
10
-71.72851400449872
20
16.929058209061623
30
0
0
SPLINE
5
132
100
AcDbEntity
8
0
100
AcDbSpline
70
0
71
2
72
6
73
3
74
0
42
0.000000001
43
0.0000000001
44
0.0000000001
40
0
40
0
40
0
40
1
40
1
40
1
10
-71.72851400449872
20
16.929058209061623
30
0
10
-72.25511709228158
20
16.929058209061623
30
0
10
-72.603002432733774
20
17.242837324738503
30
0
0
SPLINE
5
133
100
AcDbEntity
8
0
100
AcDbSpline
70
0
71
2
72
6
73
3
74
0
42
0.000000001
43
0.0000000001
44
0.0000000001
40
0
40
0
40
0
40
1
40
1
40
1
10
-72.603002432733774
20
17.242837324738503
30
0
10
-72.950887847691774
20
17.556616440415382
30
0
10
-73.000001087784767
20
18.055934086441994
30
0
0
SPLINE
5
134
100
AcDbEntity
8
0
100
AcDbSpline
70
0
71
2
72
6
73
3
74
0
42
0.000000001
43
0.0000000001
44
0.0000000001
40
0
40
0
40
0
40
1
40
1
40
1
10
-69.894953388720751
20
18.972714319825172
30
0
10
-69.894953388720751
20
19.682127609848976
30
0
10
-69.748978037387133
20
20.114597454667091
30
0
0
SPLINE
5
135
100
AcDbEntity
8
0
100
AcDbSpline
70
0
71
2
72
6
73
3
74
0
42
0.000000001
43
0.0000000001
44
0.0000000001
40
0
40
0
40
0
40
1
40
1
40
1
10
-69.748978037387133
20
20.114597454667091
30
0
10
-69.603002388030291
20
20.547066107392311
30
0
10
-69.315144438296556
20
20.781718865036964
30
0
0
SPLINE
5
136
100
AcDbEntity
8
0
100
AcDbSpline
70
0
71
2
72
6
73
3
74
0
42
0.000000001
43
0.0000000001
44
0.0000000001
40
0
40
0
40
0
40
1
40
1
40
1
10
-69.315144438296556
20
20.781718865036964
30
0
10
-69.027286190539598
20
21.016370430588722
30
0
10
-68.590724188834429
20
21.016370430588722
30
0
0
SPLINE
5
137
100
AcDbEntity
8
0
100
AcDbSpline
70
0
71
2
72
6
73
3
74
0
42
0.000000001
43
0.0000000001
44
0.0000000001
40
0
40
0
40
0
40
1
40
1
40
1
10
-68.590724188834429
20
21.016370430588722
30
0
10
-68.268759567290545
20
21.016370430588722
30
0
10
-68.025921899825335
20
20.886766090989113
30
0
0
SPLINE
5
138
100
AcDbEntity
8
0
100
AcDbSpline
70
0
71
2
72
6
73
3
74
0
42
0.000000001
43
0.0000000001
44
0.0000000001
40
0
40
0
40
0
40
1
40
1
40
1
10
-68.025921899825335
20
20.886766090989113
30
0
10
-67.783084232360125
20
20.757161751389503
30
0
10
-67.624830920249224
20
20.512960329651833
30
0
0
SPLINE
5
139
100
AcDbEntity
8
0
100
AcDbSpline
70
0
71
2
72
6
73
3
74
0
42
0.000000001
43
0.0000000001
44
0.0000000001
40
0
40
0
40
0
40
1
40
1
40
1
10
-67.624830920249224
20
20.512960329651833
30
0
10
-67.466577012091875
20
20.268758311867714
30
0
10
-67.376535851508379
20
19.91814412176609
30
0
0
SPLINE
5
140
100
AcDbEntity
8
0
100
AcDbSpline
70
0
71
2
72
6
73
3
74
0
42
0.000000001
43
0.0000000001
44
0.0000000001
40
0
40
0
40
0
40
1
40
1
40
1
10
-67.376535851508379
20
19.91814412176609
30
0
10
-67.286494690924883
20
19.567530527710915
30
0
10
-67.286494690924883
20
18.972714319825172
30
0
0
SPLINE
5
141
100
AcDbEntity
8
0
100
AcDbSpline
70
0
71
2
72
6
73
3
74
0
42
0.000000001
43
0.0000000001
44
0.0000000001
40
0
40
0
40
0
40
1
40
1
40
1
10
-67.286494690924883
20
18.972714319825172
30
0
10
-67.286494690924883
20
18.268758431077003
30
0
10
-67.43110628798604
20
17.836288586258888
30
0
0
SPLINE
5
142
100
AcDbEntity
8
0
100
AcDbSpline
70
0
71
2
72
6
73
3
74
0
42
0.000000001
43
0.0000000001
44
0.0000000001
40
0
40
0
40
0
40
1
40
1
40
1
10
-67.43110628798604
20
17.836288586258888
30
0
10
-67.57571728900075
20
17.403819933533669
30
0
10
-67.863575536757708
20
17.167803421616554
30
0
0
SPLINE
5
143
100
AcDbEntity
8
0
100
AcDbSpline
70
0
71
2
72
6
73
3
74
0
42
0.000000001
43
0.0000000001
44
0.0000000001
40
0
40
0
40
0
40
1
40
1
40
1
10
-67.863575536757708
20
17.167803421616554
30
0
10
-68.151433784514666
20
16.93178690969944
30
0
10
-68.590724188834429
20
16.93178690969944
30
0
0
SPLINE
5
144
100
AcDbEntity
8
0
100
AcDbSpline
70
0
71
2
72
6
73
3
74
0
42
0.000000001
43
0.0000000001
44
0.0000000001
40
0
40
0
40
0
40
1
40
1
40
1
10
-68.590724188834429
20
16.93178690969944
30
0
10
-69.169168788939714
20
16.93178690969944
30
0
10
-69.499318916350603
20
17.34652079641819
30
0
0
SPLINE
5
145
100
AcDbEntity
8
0
100
AcDbSpline
70
0
71
2
72
6
73
3
74
0
42
0.000000001
43
0.0000000001
44
0.0000000001
40
0
40
0
40
0
40
1
40
1
40
1
10
-69.499318916350603
20
17.34652079641819
30
0
10
-69.894953388720751
20
17.845838442444801
30
0
10
-69.894953388720751
20
18.972714319825172
30
0
0
SPLINE
5
146
100
AcDbEntity
8
0
100
AcDbSpline
70
0
71
2
72
6
73
3
74
0
42
0.000000001
43
0.0000000001
44
0.0000000001
40
0
40
0
40
0
40
1
40
1
40
1
10
-69.390178639441729
20
18.972714319825172
30
0
10
-69.390178639441729
20
17.987721338868141
30
0
10
-69.159619230777025
20
17.661663666367531
30
0
0
SPLINE
5
147
100
AcDbEntity
8
0
100
AcDbSpline
70
0
71
2
72
6
73
3
74
0
42
0.000000001
43
0.0000000001
44
0.0000000001
40
0
40
0
40
0
40
1
40
1
40
1
10
-69.159619230777025
20
17.661663666367531
30
0
10
-68.929059822112322
20
17.335607185959816
30
0
10
-68.590724188834429
20
17.335607185959816
30
0
0
SPLINE
5
148
100
AcDbEntity
8
0
100
AcDbSpline
70
0
71
2
72
6
73
3
74
0
42
0.000000001
43
0.0000000001
44
0.0000000001
40
0
40
0
40
0
40
1
40
1
40
1
10
-68.590724188834429
20
17.335607185959816
30
0
10
-68.252388555556536
20
17.335607185959816
30
0
10
-68.021829444915056
20
17.663028612732887
30
0
0
SPLINE
5
149
100
AcDbEntity
8
0
100
AcDbSpline
70
0
71
2
72
6
73
3
74
0
42
0.000000001
43
0.0000000001
44
0.0000000001
40
0
40
0
40
0
40
1
40
1
40
1
10
-68.021829444915056
20
17.663028612732887
30
0
10
-67.791269738227129
20
17.990450039505959
30
0
10
-67.791269738227129
20
18.972714319825172
30
0
0
SPLINE
5
150
100
AcDbEntity
8
0
100
AcDbSpline
70
0
71
2
72
6
73
3
74
0
42
0.000000001
43
0.0000000001
44
0.0000000001
40
0
40
0
40
0
40
1
40
1
40
1
10
-67.791269738227129
20
18.972714319825172
30
0
10
-67.791269738227129
20
19.960436001420021
30
0
10
-68.021829444915056
20
20.285129323601723
30
0
0
SPLINE
5
151
100
AcDbEntity
8
0
100
AcDbSpline
70
0
71
2
72
6
73
3
74
0
42
0.000000001
43
0.0000000001
44
0.0000000001
40
0
40
0
40
0
40
1
40
1
40
1
10
-68.021829444915056
20
20.285129323601723
30
0
10
-68.252388555556536
20
20.609822645783424
30
0
10
-68.59618129208684
20
20.609822645783424
30
0
0
SPLINE
5
152
100
AcDbEntity
8
0
100
AcDbSpline
70
0
71
2
72
6
73
3
74
0
42
0.000000001
43
0.0000000001
44
0.0000000001
40
0
40
0
40
0
40
1
40
1
40
1
10
-68.59618129208684
20
20.609822645783424
30
0
10
-68.934516925364733
20
20.609822645783424
30
0
10
-69.136426765471697
20
20.323328152298927
30
0
0
SPLINE
5
153
100
AcDbEntity
8
0
100
AcDbSpline
70
0
71
2
72
6
73
3
74
0
42
0.000000001
43
0.0000000001
44
0.0000000001
40
0
40
0
40
0
40
1
40
1
40
1
10
-69.136426765471697
20
20.323328152298927
30
0
10
-69.390178639441729
20
19.957707300782204
30
0
10
-69.390178639441729
20
18.972714319825172
30
0
0
LINE
5
154
100
AcDbEntity
8
0
100
AcDbLine
10
-66.978172976523638
20
16.999999657273293
30
0
11
-65.919509846717119
21
18.506138697266579
31
0
0
LINE
5
155
100
AcDbEntity
8
0
100
AcDbLine
10
-65.919509846717119
20
18.506138697266579
30
0
11
-66.899046022444963
21
19.897680655121803
31
0
0
LINE
5
156
100
AcDbEntity
8
0
100
AcDbLine
10
-66.899046022444963
20
19.897680655121803
30
0
11
-66.285130698233843
21
19.897680655121803
31
0
0
LINE
5
157
100
AcDbEntity
8
0
100
AcDbLine
10
-66.285130698233843
20
19.897680655121803
30
0
11
-65.840382892638445
21
19.2182806879282
31
0
0
SPLINE
5
158
100
AcDbEntity
8
0
100
AcDbSpline
70
0
71
2
72
6
73
3
74
0
42
0.000000001
43
0.0000000001
44
0.0000000001
40
0
40
0
40
0
40
1
40
1
40
1
10
-65.840382892638445
20
19.2182806879282
30
0
10
-65.714871603995562
20
19.024556055665016
30
0
10
-65.638473350554705
20
18.893587961792946
30
0
0
SPLINE
5
159
100
AcDbEntity
8
0
100
AcDbSpline
70
0
71
2
72
6
73
3
74
0
42
0.000000001
43
0.0000000001
44
0.0000000001
40
0
40
0
40
0
40
1
40
1
40
1
10
-65.638473350554705
20
18.893587961792946
30
0
10
-65.518418271094561
20
19.073669090867043
30
0
10
-65.417463500052691
20
19.212823286652565
30
0
0
LINE
5
160
100
AcDbEntity
8
0
100
AcDbLine
10
-65.417463500052691
20
19.212823286652565
30
0
11
-64.929059464484453
21
19.897680655121803
31
0
0
LINE
5
161
100
AcDbEntity
8
0
100
AcDbLine
10
-64.929059464484453
20
19.897680655121803
30
0
11
-64.342429358512163
21
19.897680655121803
31
0
0
LINE
5
162
100
AcDbEntity
8
0
100
AcDbLine
10
-64.342429358512163
20
19.897680655121803
30
0
11
-65.343793947249651
21
18.533424511551857
31
0
0
LINE
5
163
100
AcDbEntity
8
0
100
AcDbLine
10
-65.343793947249651
20
18.533424511551857
30
0
11
-64.266031105071306
21
16.999999657273293
31
0
0
LINE
5
164
100
AcDbEntity
8
0
100
AcDbLine
10
-64.266031105071306
20
16.999999657273293
30
0
11
-64.869032818824053
21
16.999999657273293
31
0
0
LINE
5
165
100
AcDbEntity
8
0
100
AcDbLine
10
-64.869032818824053
20
16.999999657273293
30
0
11
-65.463848430663347
21
17.900408878922462
31
0
0
LINE
5
166
100
AcDbEntity
8
0
100
AcDbLine
10
-65.463848430663347
20
17.900408878922462
30
0
11
-65.622101742774248
21
18.143246546387672
31
0
0
LINE
5
167
100
AcDbEntity
8
0
100
AcDbLine
10
-65.622101742774248
20
18.143246546387672
30
0
11
-66.383357364684343
21
16.999999657273293
31
0
0
LINE
5
168
100
AcDbEntity
8
0
100
AcDbLine
10
-66.383357364684343
20
16.999999657273293
30
0
11
-66.978172976523638
21
16.999999657273293
31
0
0
LINE
5
169
100
AcDbEntity
8
0
100
AcDbLine
10
-61.41200752928853
20
17.472032681107521
30
0
11
-61.41200752928853
21
16.999999657273293
31
0
0
LINE
5
170
100
AcDbEntity
8
0
100
AcDbLine
10
-61.41200752928853
20
16.999999657273293
30
0
11
-64.055936057120562
21
16.999999657273293
31
0
0
SPLINE
5
171
100
AcDbEntity
8
0
100
AcDbSpline
70
0
71
2
72
6
73
3
74
0
42
0.000000001
43
0.0000000001
44
0.0000000001
40
0
40
0
40
0
40
1
40
1
40
1
10
-64.055936057120562
20
16.999999657273293
30
0
10
-64.061392862349749
20
17.177353277802467
30
0
10
-63.998636920005083
20
17.341063395142555
30
0
0
SPLINE
5
172
100
AcDbEntity
8
0
100
AcDbSpline
70
0
71
2
72
6
73
3
74
0
42
0.000000001
43
0.0000000001
44
0.0000000001
40
0
40
0
40
0
40
1
40
1
40
1
10
-63.998636920005083
20
17.341063395142555
30
0
10
-63.897682148963213
20
17.611186876893044
30
0
10
-63.675308544188738
20
17.87312425673008
30
0
0
SPLINE
5
173
100
AcDbEntity
8
0
100
AcDbSpline
70
0
71
2
72
6
73
3
74
0
42
0.000000001
43
0.0000000001
44
0.0000000001
40
0
40
0
40
0
40
1
40
1
40
1
10
-63.675308544188738
20
17.87312425673008
30
0
10
-63.452934343367815
20
18.13506044447422
30
0
10
-63.032743651419878
20
18.478854075074196
30
0
0
SPLINE
5
174
100
AcDbEntity
8
0
100
AcDbSpline
70
0
71
2
72
6
73
3
74
0
42
0.000000001
43
0.0000000001
44
0.0000000001
40
0
40
0
40
0
40
1
40
1
40
1
10
-63.032743651419878
20
18.478854075074196
30
0
10
-62.380628306418657
20
19.013642445206642
30
0
10
-62.151434142142534
20
19.326056614518166
30
0
0
SPLINE
5
175
100
AcDbEntity
8
0
100
AcDbSpline
70
0
71
2
72
6
73
3
74
0
42
0.000000001
43
0.0000000001
44
0.0000000001
40
0
40
0
40
0
40
1
40
1
40
1
10
-62.151434142142534
20
19.326056614518166
30
0
10
-61.922238785773516
20
19.638471975922585
30
0
10
-61.922238785773516
20
19.916780367493629
30
0
0
SPLINE
5
176
100
AcDbEntity
8
0
100
AcDbSpline
70
0
71
2
72
6
73
3
74
0
42
0.000000001
43
0.0000000001
44
0.0000000001
40
0
40
0
40
0
40
1
40
1
40
1
10
-61.922238785773516
20
19.916780367493629
30
0
10
-61.922238785773516
20
20.208731070160866
30
0
10
-62.130969483405352
20
20.409276857972145
30
0
0
SPLINE
5
177
100
AcDbEntity
8
0
100
AcDbSpline
70
0
71
2
72
6
73
3
74
0
42
0.000000001
43
0.0000000001
44
0.0000000001
40
0
40
0
40
0
40
1
40
1
40
1
10
-62.130969483405352
20
20.409276857972145
30
0
10
-62.339701373130083
20
20.609822645783424
30
0
10
-62.675308901816607
20
20.609822645783424
30
0
0
SPLINE
5
178
100
AcDbEntity
8
0
100
AcDbSpline
70
0
71
2
72
6
73
3
74
0
42
0.000000001
43
0.0000000001
44
0.0000000001
40
0
40
0
40
0
40
1
40
1
40
1
10
-62.675308901816607
20
20.609822645783424
30
0
10
-63.030014950782061
20
20.609822645783424
30
0
10
-63.24283929541707
20
20.396998301148415
30
0
0
SPLINE
5
179
100
AcDbEntity
8
0
100
AcDbSpline
70
0
71
2
72
6
73
3
74
0
42
0.000000001
43
0.0000000001
44
0.0000000001
40
0
40
0
40
0
40
1
40
1
40
1
10
-63.24283929541707
20
20.396998301148415
30
0
10
-63.455663044005632
20
20.184173956513405
30
0
10
-63.45839174464345
20
19.807639494538307
30
0
0
LINE
5
180
100
AcDbEntity
8
0
100
AcDbLine
10
-63.45839174464345
20
19.807639494538307
30
0
11
-63.963166195899248
21
19.859481230378151
31
0
0
SPLINE
5
181
100
AcDbEntity
8
0
100
AcDbSpline
70
0
71
2
72
6
73
3
74
0
42
0.000000001
43
0.0000000001
44
0.0000000001
40
0
40
0
40
0
40
1
40
1
40
1
10
-63.963166195899248
20
19.859481230378151
30
0
10
-63.911324460059404
20
20.424282923340797
30
0
10
-63.572988826781511
20
20.720327273011208
30
0
0
SPLINE
5
182
100
AcDbEntity
8
0
100
AcDbSpline
70
0
71
2
72
6
73
3
74
0
42
0.000000001
43
0.0000000001
44
0.0000000001
40
0
40
0
40
0
40
1
40
1
40
1
10
-63.572988826781511
20
20.720327273011208
30
0
10
-63.234653193503618
20
21.016370430588722
30
0
10
-62.664394099265337
20
21.016370430588722
30
0
0
SPLINE
5
183
100
AcDbEntity
8
0
100
AcDbSpline
70
0
71
2
72
6
73
3
74
0
42
0.000000001
43
0.0000000001
44
0.0000000001
40
0
40
0
40
0
40
1
40
1
40
1
10
-62.664394099265337
20
21.016370430588722
30
0
10
-62.088677603751421
20
21.016370430588722
30
0
10
-61.753071267157793
20
20.697135105729103
30
0
0
SPLINE
5
184
100
AcDbEntity
8
0
100
AcDbSpline
70
0
71
2
72
6
73
3
74
0
42
0.000000001
43
0.0000000001
44
0.0000000001
40
0
40
0
40
0
40
1
40
1
40
1
10
-61.753071267157793
20
20.697135105729103
30
0
10
-61.41746373847127
20
20.377898588776588
30
0
10
-61.41746373847127
20
19.90586556494236
30
0
0
SPLINE
5
185
100
AcDbEntity
8
0
100
AcDbSpline
70
0
71
2
72
6
73
3
74
0
42
0.000000001
43
0.0000000001
44
0.0000000001
40
0
40
0
40
0
40
1
40
1
40
1
10
-61.41746373847127
20
19.90586556494236
30
0
10
-61.41746373847127
20
19.665756598114967
30
0
10
-61.515691000968218
20
19.433833733201027
30
0
0
SPLINE
5
186
100
AcDbEntity
8
0
100
AcDbSpline
70
0
71
2
72
6
73
3
74
0
42
0.000000001
43
0.0000000001
44
0.0000000001
40
0
40
0
40
0
40
1
40
1
40
1
10
-61.515691000968218
20
19.433833733201027
30
0
10
-61.613917071372271
20
19.201909676194191
30
0
10
-61.841747481375933
20
18.94542969763279
30
0
0
SPLINE
5
187
100
AcDbEntity
8
0
100
AcDbSpline
70
0
71
2
72
6
73
3
74
0
42
0.000000001
43
0.0000000001
44
0.0000000001
40
0
40
0
40
0
40
1
40
1
40
1
10
-61.841747481375933
20
18.94542969763279
30
0
10
-62.069577891379595
20
18.688949719071388
30
0
10
-62.598910052329302
20
18.241472616791725
30
0
0
SPLINE
5
188
100
AcDbEntity
8
0
100
AcDbSpline
70
0
71
2
72
6
73
3
74
0
42
0.000000001
43
0.0000000001
44
0.0000000001
40
0
40
0
40
0
40
1
40
1
40
1
10
-62.598910052329302
20
18.241472616791725
30
0
10
-63.040928561240435
20
17.870395556092262
30
0
10
-63.166440445929766
20
17.738062515854836
30
0
0
SPLINE
5
189
100
AcDbEntity
8
0
100
AcDbSpline
70
0
71
2
72
6
73
3
74
0
42
0.000000001
43
0.0000000001
44
0.0000000001
40
0
40
0
40
0
40
1
40
1
40
1
10
-63.166440445929766
20
17.738062515854836
30
0
10
-63.291952330619097
20
17.605729475617409
30
0
10
-63.373807389289141
20
17.472032681107521
30
0
0
LINE
5
190
100
AcDbEntity
8
0
100
AcDbLine
10
-63.373807389289141
20
17.472032681107521
30
0
11
-61.41200752928853
21
17.472032681107521
31
0
0
SPLINE
5
191
100
AcDbEntity
8
0
100
AcDbSpline
70
0
71
2
72
6
73
3
74
0
42
0.000000001
43
0.0000000001
44
0.0000000001
40
0
40
0
40
0
40
1
40
1
40
1
10
-60.885402876883745
20
18.972714319825172
30
0
10
-60.885402876883745
20
19.682127609848976
30
0
10
-60.739427525550127
20
20.114597454667091
30
0
0
SPLINE
5
192
100
AcDbEntity
8
0
100
AcDbSpline
70
0
71
2
72
6
73
3
74
0
42
0.000000001
43
0.0000000001
44
0.0000000001
40
0
40
0
40
0
40
1
40
1
40
1
10
-60.739427525550127
20
20.114597454667091
30
0
10
-60.593452174216509
20
20.547066107392311
30
0
10
-60.305593926459551
20
20.781718865036964
30
0
0
SPLINE
5
193
100
AcDbEntity
8
0
100
AcDbSpline
70
0
71
2
72
6
73
3
74
0
42
0.000000001
43
0.0000000001
44
0.0000000001
40
0
40
0
40
0
40
1
40
1
40
1
10
-60.305593926459551
20
20.781718865036964
30
0
10
-60.017735678702593
20
21.016370430588722
30
0
10
-59.581173378974199
20
21.016370430588722
30
0
0
SPLINE
5
194
100
AcDbEntity
8
0
100
AcDbSpline
70
0
71
2
72
6
73
3
74
0
42
0.000000001
43
0.0000000001
44
0.0000000001
40
0
40
0
40
0
40
1
40
1
40
1
10
-59.581173378974199
20
21.016370430588722
30
0
10
-59.259209353476763
20
21.016370430588722
30
0
10
-59.016371686011553
20
20.886766090989113
30
0
0
SPLINE
5
195
100
AcDbEntity
8
0
100
AcDbSpline
70
0
71
2
72
6
73
3
74
0
42
0.000000001
43
0.0000000001
44
0.0000000001
40
0
40
0
40
0
40
1
40
1
40
1
10
-59.016371686011553
20
20.886766090989113
30
0
10
-58.773534018546343
20
20.757161751389503
30
0
10
-58.615280110388994
20
20.512960329651833
30
0
0
SPLINE
5
196
100
AcDbEntity
8
0
100
AcDbSpline
70
0
71
2
72
6
73
3
74
0
42
0.000000001
43
0.0000000001
44
0.0000000001
40
0
40
0
40
0
40
1
40
1
40
1
10
-58.615280110388994
20
20.512960329651833
30
0
10
-58.457026202231646
20
20.268758311867714
30
0
10
-58.366985041648149
20
19.91814412176609
30
0
0
SPLINE
5
197
100
AcDbEntity
8
0
100
AcDbSpline
70
0
71
2
72
6
73
3
74
0
42
0.000000001
43
0.0000000001
44
0.0000000001
40
0
40
0
40
0
40
1
40
1
40
1
10
-58.366985041648149
20
19.91814412176609
30
0
10
-58.276943881064653
20
19.567530527710915
30
0
10
-58.276943881064653
20
18.972714319825172
30
0
0
SPLINE
5
198
100
AcDbEntity
8
0
100
AcDbSpline
70
0
71
2
72
6
73
3
74
0
42
0.000000001
43
0.0000000001
44
0.0000000001
40
0
40
0
40
0
40
1
40
1
40
1
10
-58.276943881064653
20
18.972714319825172
30
0
10
-58.276943881064653
20
18.268758431077003
30
0
10
-58.421555478125811
20
17.836288586258888
30
0
0
SPLINE
5
199
100
AcDbEntity
8
0
100
AcDbSpline
70
0
71
2
72
6
73
3
74
0
42
0.000000001
43
0.0000000001
44
0.0000000001
40
0
40
0
40
0
40
1
40
1
40
1
10
-58.421555478125811
20
17.836288586258888
30
0
10
-58.566167075186968
20
17.403819933533669
30
0
10
-58.854025322943926
20
17.167803421616554
30
0
0
SPLINE
5
200
100
AcDbEntity
8
0
100
AcDbSpline
70
0
71
2
72
6
73
3
74
0
42
0.000000001
43
0.0000000001
44
0.0000000001
40
0
40
0
40
0
40
1
40
1
40
1
10
-58.854025322943926
20
17.167803421616554
30
0
10
-59.141883570700884
20
16.93178690969944
30
0
10
-59.581173378974199
20
16.93178690969944
30
0
0
SPLINE
5
201
100
AcDbEntity
8
0
100
AcDbSpline
70
0
71
2
72
6
73
3
74
0
42
0.000000001
43
0.0000000001
44
0.0000000001
40
0
40
0
40
0
40
1
40
1
40
1
10
-59.581173378974199
20
16.93178690969944
30
0
10
-60.159618575125933
20
16.93178690969944
30
0
10
-60.489768702536821
20
17.34652079641819
30
0
0
SPLINE
5
202
100
AcDbEntity
8
0
100
AcDbSpline
70
0
71
2
72
6
73
3
74
0
42
0.000000001
43
0.0000000001
44
0.0000000001
40
0
40
0
40
0
40
1
40
1
40
1
10
-60.489768702536821
20
17.34652079641819
30
0
10
-60.885402876883745
20
17.845838442444801
30
0
10
-60.885402876883745
20
18.972714319825172
30
0
0
SPLINE
5
203
100
AcDbEntity
8
0
100
AcDbSpline
70
0
71
2
72
6
73
3
74
0
42
0.000000001
43
0.0000000001
44
0.0000000001
40
0
40
0
40
0
40
1
40
1
40
1
10
-60.380627829581499
20
18.972714319825172
30
0
10
-60.380627829581499
20
17.987721338868141
30
0
10
-60.15006871894002
20
17.661663666367531
30
0
0
SPLINE
5
204
100
AcDbEntity
8
0
100
AcDbSpline
70
0
71
2
72
6
73
3
74
0
42
0.000000001
43
0.0000000001
44
0.0000000001
40
0
40
0
40
0
40
1
40
1
40
1
10
-60.15006871894002
20
17.661663666367531
30
0
10
-59.91950960829854
20
17.335607185959816
30
0
10
-59.581173378974199
20
17.335607185959816
30
0
0
SPLINE
5
205
100
AcDbEntity
8
0
100
AcDbSpline
70
0
71
2
72
6
73
3
74
0
42
0.000000001
43
0.0000000001
44
0.0000000001
40
0
40
0
40
0
40
1
40
1
40
1
10
-59.581173378974199
20
17.335607185959816
30
0
10
-59.242838341742754
20
17.335607185959816
30
0
10
-59.012279231101274
20
17.663028612732887
30
0
0
SPLINE
5
206
100
AcDbEntity
8
0
100
AcDbSpline
70
0
71
2
72
6
73
3
74
0
42
0.000000001
43
0.0000000001
44
0.0000000001
40
0
40
0
40
0
40
1
40
1
40
1
10
-59.012279231101274
20
17.663028612732887
30
0
10
-58.781718928366899
20
17.990450039505959
30
0
10
-58.781718928366899
20
18.972714319825172
30
0
0
SPLINE
5
207
100
AcDbEntity
8
0
100
AcDbSpline
70
0
71
2
72
6
73
3
74
0
42
0.000000001
43
0.0000000001
44
0.0000000001
40
0
40
0
40
0
40
1
40
1
40
1
10
-58.781718928366899
20
18.972714319825172
30
0
10
-58.781718928366899
20
19.960436001420021
30
0
10
-59.012279231101274
20
20.285129323601723
30
0
0
SPLINE
5
208
100
AcDbEntity
8
0
100
AcDbSpline
70
0
71
2
72
6
73
3
74
0
42
0.000000001
43
0.0000000001
44
0.0000000001
40
0
40
0
40
0
40
1
40
1
40
1
10
-59.012279231101274
20
20.285129323601723
30
0
10
-59.242838341742754
20
20.609822645783424
30
0
10
-59.586630780249834
20
20.609822645783424
30
0
0
SPLINE
5
209
100
AcDbEntity
8
0
100
AcDbSpline
70
0
71
2
72
6
73
3
74
0
42
0.000000001
43
0.0000000001
44
0.0000000001
40
0
40
0
40
0
40
1
40
1
40
1
10
-59.586630780249834
20
20.609822645783424
30
0
10
-59.924965817481279
20
20.609822645783424
30
0
10
-60.126876551657915
20
20.323328152298927
30
0
0
SPLINE
5
210
100
AcDbEntity
8
0
100
AcDbSpline
70
0
71
2
72
6
73
3
74
0
42
0.000000001
43
0.0000000001
44
0.0000000001
40
0
40
0
40
0
40
1
40
1
40
1
10
-60.126876551657915
20
20.323328152298927
30
0
10
-60.380627829581499
20
19.957707300782204
30
0
10
-60.380627829581499
20
18.972714319825172
30
0
0
LINE
5
211
100
AcDbEntity
8
0
100
AcDbLine
10
-57.641201931983232
20
16.999999657273293
30
0
11
-57.641201931983232
21
19.897680655121803
31
0
0
LINE
5
212
100
AcDbEntity
8
0
100
AcDbLine
10
-57.641201931983232
20
19.897680655121803
30
0
11
-57.201910931617022
21
19.897680655121803
31
0
0
LINE
5
213
100
AcDbEntity
8
0
100
AcDbLine
10
-57.201910931617022
20
19.897680655121803
30
0
11
-57.201910931617022
21
19.49113167822361
31
0
0
SPLINE
5
214
100
AcDbEntity
8
0
100
AcDbSpline
70
0
71
2
72
6
73
3
74
0
42
0.000000001
43
0.0000000001
44
0.0000000001
40
0
40
0
40
0
40
1
40
1
40
1
10
-57.201910931617022
20
19.49113167822361
30
0
10
-57.065485436469316
20
19.70395602285862
30
0
10
-56.839018780738115
20
19.833560362458229
30
0
0
SPLINE
5
215
100
AcDbEntity
8
0
100
AcDbSpline
70
0
71
2
72
6
73
3
74
0
42
0.000000001
43
0.0000000001
44
0.0000000001
40
0
40
0
40
0
40
1
40
1
40
1
10
-56.839018780738115
20
19.833560362458229
30
0
10
-56.612552125006914
20
19.963164702057838
30
0
10
-56.323330122977495
20
19.963164702057838
30
0
0
SPLINE
5
216
100
AcDbEntity
8
0
100
AcDbSpline
70
0
71
2
72
6
73
3
74
0
42
0.000000001
43
0.0000000001
44
0.0000000001
40
0
40
0
40
0
40
1
40
1
40
1
10
-56.323330122977495
20
19.963164702057838
30
0
10
-56.001366097480059
20
19.963164702057838
30
0
10
-55.795362908393145
20
19.829467907547951
30
0
0
SPLINE
5
217
100
AcDbEntity
8
0
100
AcDbSpline
70
0
71
2
72
6
73
3
74
0
42
0.000000001
43
0.0000000001
44
0.0000000001
40
0
40
0
40
0
40
1
40
1
40
1
10
-55.795362908393145
20
19.829467907547951
30
0
10
-55.589359719306231
20
19.695769920945168
30
0
10
-55.504775959998369
20
19.455660954117775
30
0
0
SPLINE
5
218
100
AcDbEntity
8
0
100
AcDbSpline
70
0
71
2
72
6
73
3
74
0
42
0.000000001
43
0.0000000001
44
0.0000000001
40
0
40
0
40
0
40
1
40
1
40
1
10
-55.504775959998369
20
19.455660954117775
30
0
10
-55.160983521491289
20
19.963164702057838
30
0
10
-54.609824139624834
20
19.963164702057838
30
0
0
SPLINE
5
219
100
AcDbEntity
8
0
100
AcDbSpline
70
0
71
2
72
6
73
3
74
0
42
0.000000001
43
0.0000000001
44
0.0000000001
40
0
40
0
40
0
40
1
40
1
40
1
10
-54.609824139624834
20
19.963164702057838
30
0
10
-54.178719241172075
20
19.963164702057838
30
0
10
-53.946795184165239
20
19.724419489502907
30
0
0
SPLINE
5
220
100
AcDbEntity
8
0
100
AcDbSpline
70
0
71
2
72
6
73
3
74
0
42
0.000000001
43
0.0000000001
44
0.0000000001
40
0
40
0
40
0
40
1
40
1
40
1
10
-53.946795184165239
20
19.724419489502907
30
0
10
-53.714871127158403
20
19.485675469040871
30
0
10
-53.714871127158403
20
18.989085331559181
30
0
0
LINE
5
221
100
AcDbEntity
8
0
100
AcDbLine
10
-53.714871127158403
20
18.989085331559181
30
0
11
-53.714871127158403
21
16.999999657273293
31
0
0
LINE
5
222
100
AcDbEntity
8
0
100
AcDbLine
10
-53.714871127158403
20
16.999999657273293
30
0
11
-54.203276354819536
21
16.999999657273293
31
0
0
LINE
5
223
100
AcDbEntity
8
0
100
AcDbLine
10
-54.203276354819536
20
16.999999657273293
30
0
11
-54.203276354819536
21
18.825375214219093
31
0
0
SPLINE
5
224
100
AcDbEntity
8
0
100
AcDbSpline
70
0
71
2
72
6
73
3
74
0
42
0.000000001
43
0.0000000001
44
0.0000000001
40
0
40
0
40
0
40
1
40
1
40
1
10
-54.203276354819536
20
18.825375214219093
30
0
10
-54.203276354819536
20
19.120054617524147
30
0
10
-54.251024443656206
20
19.249658957123756
30
0
0
SPLINE
5
225
100
AcDbEntity
8
0
100
AcDbSpline
70
0
71
2
72
6
73
3
74
0
42
0.000000001
43
0.0000000001
44
0.0000000001
40
0
40
0
40
0
40
1
40
1
40
1
10
-54.251024443656206
20
19.249658957123756
30
0
10
-54.298773724585772
20
19.379263296723366
30
0
10
-54.424285609275103
20
19.458389654755592
30
0
0
SPLINE
5
226
100
AcDbEntity
8
0
100
AcDbSpline
70
0
71
2
72
6
73
3
74
0
42
0.000000001
43
0.0000000001
44
0.0000000001
40
0
40
0
40
0
40
1
40
1
40
1
10
-54.424285609275103
20
19.458389654755592
30
0
10
-54.549796301871538
20
19.537517204880714
30
0
10
-54.718965012580156
20
19.537517204880714
30
0
0
SPLINE
5
227
100
AcDbEntity
8
0
100
AcDbSpline
70
0
71
2
72
6
73
3
74
0
42
0.000000001
43
0.0000000001
44
0.0000000001
40
0
40
0
40
0
40
1
40
1
40
1
10
-54.718965012580156
20
19.537517204880714
30
0
10
-55.024558026343584
20
19.537517204880714
30
0
10
-55.226467568427324
20
19.334242716431618
30
0
0
SPLINE
5
228
100
AcDbEntity
8
0
100
AcDbSpline
70
0
71
2
72
6
73
3
74
0
42
0.000000001
43
0.0000000001
44
0.0000000001
40
0
40
0
40
0
40
1
40
1
40
1
10
-55.226467568427324
20
19.334242716431618
30
0
10
-55.42837830260396
20
19.130968227982521
30
0
10
-55.42837830260396
20
18.683492317795753
30
0
0
LINE
5
229
100
AcDbEntity
8
0
100
AcDbLine
10
-55.42837830260396
20
18.683492317795753
30
0
11
-55.42837830260396
21
16.999999657273293
31
0
0
LINE
5
230
100
AcDbEntity
8
0
100
AcDbLine
10
-55.42837830260396
20
16.999999657273293
30
0
11
-55.919509846717119
21
16.999999657273293
31
0
0
LINE
5
231
100
AcDbEntity
8
0
100
AcDbLine
10
-55.919509846717119
20
16.999999657273293
30
0
11
-55.919509846717119
21
18.882673159241676
31
0
0
SPLINE
5
232
100
AcDbEntity
8
0
100
AcDbSpline
70
0
71
2
72
6
73
3
74
0
42
0.000000001
43
0.0000000001
44
0.0000000001
40
0
40
0
40
0
40
1
40
1
40
1
10
-55.919509846717119
20
18.882673159241676
30
0
10
-55.919509846717119
20
19.210094586014748
30
0
10
-56.039564330130816
20
19.373805895447731
30
0
0
SPLINE
5
233
100
AcDbEntity
8
0
100
AcDbSpline
70
0
71
2
72
6
73
3
74
0
42
0.000000001
43
0.0000000001
44
0.0000000001
40
0
40
0
40
0
40
1
40
1
40
1
10
-56.039564330130816
20
19.373805895447731
30
0
10
-56.159620005637407
20
19.537517204880714
30
0
10
-56.432470995932817
20
19.537517204880714
30
0
0
SPLINE
5
234
100
AcDbEntity
8
0
100
AcDbSpline
70
0
71
2
72
6
73
3
74
0
42
0.000000001
43
0.0000000001
44
0.0000000001
40
0
40
0
40
0
40
1
40
1
40
1
10
-56.432470995932817
20
19.537517204880714
30
0
10
-56.639837939292192
20
19.537517204880714
30
0
10
-56.815826613456011
20
19.428376331925392
30
0
0
SPLINE
5
235
100
AcDbEntity
8
0
100
AcDbSpline
70
0
71
2
72
6
73
3
74
0
42
0.000000001
43
0.0000000001
44
0.0000000001
40
0
40
0
40
0
40
1
40
1
40
1
10
-56.815826613456011
20
19.428376331925392
30
0
10
-56.991815287619829
20
19.31923545897007
30
0
10
-57.070942837744951
20
19.109139814972878
30
0
0
SPLINE
5
236
100
AcDbEntity
8
0
100
AcDbSpline
70
0
71
2
72
6
73
3
74
0
42
0.000000001
43
0.0000000001
44
0.0000000001
40
0
40
0
40
0
40
1
40
1
40
1
10
-57.070942837744951
20
19.109139814972878
30
0
10
-57.150069195777178
20
18.899044170975685
30
0
10
-57.150069195777178
20
18.503409996628761
30
0
0
LINE
5
237
100
AcDbEntity
8
0
100
AcDbLine
10
-57.150069195777178
20
18.503409996628761
30
0
11
-57.150069195777178
21
16.999999657273293
31
0
0
LINE
5
238
100
AcDbEntity
8
0
100
AcDbLine
10
-57.150069195777178
20
16.999999657273293
30
0
11
-57.641201931983232
21
16.999999657273293
31
0
0
LINE
5
239
100
AcDbEntity
8
0
100
AcDbLine
10
-52.986359316855669
20
16.999999657273293
30
0
11
-52.986359316855669
21
19.897680655121803
31
0
0
LINE
5
240
100
AcDbEntity
8
0
100
AcDbLine
10
-52.986359316855669
20
19.897680655121803
30
0
11
-52.547068316489458
21
19.897680655121803
31
0
0
LINE
5
241
100
AcDbEntity
8
0
100
AcDbLine
10
-52.547068316489458
20
19.897680655121803
30
0
11
-52.547068316489458
21
19.49113167822361
31
0
0
SPLINE
5
242
100
AcDbEntity
8
0
100
AcDbSpline
70
0
71
2
72
6
73
3
74
0
42
0.000000001
43
0.0000000001
44
0.0000000001
40
0
40
0
40
0
40
1
40
1
40
1
10
-52.547068316489458
20
19.49113167822361
30
0
10
-52.410642821341753
20
19.70395602285862
30
0
10
-52.184176165610552
20
19.833560362458229
30
0
0
SPLINE
5
243
100
AcDbEntity
8
0
100
AcDbSpline
70
0
71
2
72
6
73
3
74
0
42
0.000000001
43
0.0000000001
44
0.0000000001
40
0
40
0
40
0
40
1
40
1
40
1
10
-52.184176165610552
20
19.833560362458229
30
0
10
-51.957709509879351
20
19.963164702057838
30
0
10
-51.668486315757036
20
19.963164702057838
30
0
0
SPLINE
5
244
100
AcDbEntity
8
0
100
AcDbSpline
70
0
71
2
72
6
73
3
74
0
42
0.000000001
43
0.0000000001
44
0.0000000001
40
0
40
0
40
0
40
1
40
1
40
1
10
-51.668486315757036
20
19.963164702057838
30
0
10
-51.346523482352495
20
19.963164702057838
30
0
10
-51.140520293265581
20
19.829467907547951
30
0
0
SPLINE
5
245
100
AcDbEntity
8
0
100
AcDbSpline
70
0
71
2
72
6
73
3
74
0
42
0.000000001
43
0.0000000001
44
0.0000000001
40
0
40
0
40
0
40
1
40
1
40
1
10
-51.140520293265581
20
19.829467907547951
30
0
10
-50.934517104178667
20
19.695769920945168
30
0
10
-50.849933344870806
20
19.455660954117775
30
0
0
SPLINE
5
246
100
AcDbEntity
8
0
100
AcDbSpline
70
0
71
2
72
6
73
3
74
0
42
0.000000001
43
0.0000000001
44
0.0000000001
40
0
40
0
40
0
40
1
40
1
40
1
10
-50.849933344870806
20
19.455660954117775
30
0
10
-50.506140906363726
20
19.963164702057838
30
0
10
-49.954981524497271
20
19.963164702057838
30
0
0
SPLINE
5
247
100
AcDbEntity
8
0
100
AcDbSpline
70
0
71
2
72
6
73
3
74
0
42
0.000000001
43
0.0000000001
44
0.0000000001
40
0
40
0
40
0
40
1
40
1
40
1
10
-49.954981524497271
20
19.963164702057838
30
0
10
-49.523875433951616
20
19.963164702057838
30
0
10
-49.291953761130571
20
19.724419489502907
30
0
0
SPLINE
5
248
100
AcDbEntity
8
0
100
AcDbSpline
70
0
71
2
72
6
73
3
74
0
42
0.000000001
43
0.0000000001
44
0.0000000001
40
0
40
0
40
0
40
1
40
1
40
1
10
-49.291953761130571
20
19.724419489502907
30
0
10
-49.060029704123735
20
19.485675469040871
30
0
10
-49.060029704123735
20
18.989085331559181
30
0
0
LINE
5
249
100
AcDbEntity
8
0
100
AcDbLine
10
-49.060029704123735
20
18.989085331559181
30
0
11
-49.060029704123735
21
16.999999657273293
31
0
0
LINE
5
250
100
AcDbEntity
8
0
100
AcDbLine
10
-49.060029704123735
20
16.999999657273293
30
0
11
-49.548432547599077
21
16.999999657273293
31
0
0
LINE
5
251
100
AcDbEntity
8
0
100
AcDbLine
10
-49.548432547599077
20
16.999999657273293
30
0
11
-49.548432547599077
21
18.825375214219093
31
0
0
SPLINE
5
252
100
AcDbEntity
8
0
100
AcDbSpline
70
0
71
2
72
6
73
3
74
0
42
0.000000001
43
0.0000000001
44
0.0000000001
40
0
40
0
40
0
40
1
40
1
40
1
10
-49.548432547599077
20
18.825375214219093
30
0
10
-49.548432547599077
20
19.120054617524147
30
0
10
-49.596183020621538
20
19.249658957123756
30
0
0
SPLINE
5
253
100
AcDbEntity
8
0
100
AcDbSpline
70
0
71
2
72
6
73
3
74
0
42
0.000000001
43
0.0000000001
44
0.0000000001
40
0
40
0
40
0
40
1
40
1
40
1
10
-49.596183020621538
20
19.249658957123756
30
0
10
-49.643931109458208
20
19.379263296723366
30
0
10
-49.769441802054644
20
19.458389654755592
30
0
0
SPLINE
5
254
100
AcDbEntity
8
0
100
AcDbSpline
70
0
71
2
72
6
73
3
74
0
42
0.000000001
43
0.0000000001
44
0.0000000001
40
0
40
0
40
0
40
1
40
1
40
1
10
-49.769441802054644
20
19.458389654755592
30
0
10
-49.89495487883687
20
19.537517204880714
30
0
10
-50.064122397452593
20
19.537517204880714
30
0
0
SPLINE
5
255
100
AcDbEntity
8
0
100
AcDbSpline
70
0
71
2
72
6
73
3
74
0
42
0.000000001
43
0.0000000001
44
0.0000000001
40
0
40
0
40
0
40
1
40
1
40
1
10
-50.064122397452593
20
19.537517204880714
30
0
10
-50.369715411216021
20
19.537517204880714
30
0
10
-50.571624953299761
20
19.334242716431618
30
0
0
SPLINE
5
256
100
AcDbEntity
8
0
100
AcDbSpline
70
0
71
2
72
6
73
3
74
0
42
0.000000001
43
0.0000000001
44
0.0000000001
40
0
40
0
40
0
40
1
40
1
40
1
10
-50.571624953299761
20
19.334242716431618
30
0
10
-50.773534495383501
20
19.130968227982521
30
0
10
-50.773534495383501
20
18.683492317795753
30
0
0
LINE
5
257
100
AcDbEntity
8
0
100
AcDbLine
10
-50.773534495383501
20
18.683492317795753
30
0
11
-50.773534495383501
21
16.999999657273293
31
0
0
LINE
5
258
100
AcDbEntity
8
0
100
AcDbLine
10
-50.773534495383501
20
16.999999657273293
30
0
11
-51.264667231589556
21
16.999999657273293
31
0
0
LINE
5
259
100
AcDbEntity
8
0
100
AcDbLine
10
-51.264667231589556
20
16.999999657273293
30
0
11
-51.264667231589556
21
18.882673159241676
31
0
0
SPLINE
5
260
100
AcDbEntity
8
0
100
AcDbSpline
70
0
71
2
72
6
73
3
74
0
42
0.000000001
43
0.0000000001
44
0.0000000001
40
0
40
0
40
0
40
1
40
1
40
1
10
-51.264667231589556
20
18.882673159241676
30
0
10
-51.264667231589556
20
19.210094586014748
30
0
10
-51.384722907096148
20
19.373805895447731
30
0
0
SPLINE
5
261
100
AcDbEntity
8
0
100
AcDbSpline
70
0
71
2
72
6
73
3
74
0
42
0.000000001
43
0.0000000001
44
0.0000000001
40
0
40
0
40
0
40
1
40
1
40
1
10
-51.384722907096148
20
19.373805895447731
30
0
10
-51.504776198416948
20
19.537517204880714
30
0
10
-51.777627188712358
20
19.537517204880714
30
0
0
SPLINE
5
262
100
AcDbEntity
8
0
100
AcDbSpline
70
0
71
2
72
6
73
3
74
0
42
0.000000001
43
0.0000000001
44
0.0000000001
40
0
40
0
40
0
40
1
40
1
40
1
10
-51.777627188712358
20
19.537517204880714
30
0
10
-51.984994132071733
20
19.537517204880714
30
0
10
-52.160985190421343
20
19.428376331925392
30
0
0
SPLINE
5
263
100
AcDbEntity
8
0
100
AcDbSpline
70
0
71
2
72
6
73
3
74
0
42
0.000000001
43
0.0000000001
44
0.0000000001
40
0
40
0
40
0
40
1
40
1
40
1
10
-52.160985190421343
20
19.428376331925392
30
0
10
-52.336973864585161
20
19.31923545897007
30
0
10
-52.416100222617388
20
19.109139814972878
30
0
0
SPLINE
5
264
100
AcDbEntity
8
0
100
AcDbSpline
70
0
71
2
72
6
73
3
74
0
42
0.000000001
43
0.0000000001
44
0.0000000001
40
0
40
0
40
0
40
1
40
1
40
1
10
-52.416100222617388
20
19.109139814972878
30
0
10
-52.495226580649614
20
18.899044170975685
30
0
10
-52.495226580649614
20
18.503409996628761
30
0
0
LINE
5
265
100
AcDbEntity
8
0
100
AcDbLine
10
-52.495226580649614
20
18.503409996628761
30
0
11
-52.495226580649614
21
16.999999657273293
31
0
0
LINE
5
266
100
AcDbEntity
8
0
100
AcDbLine
10
-52.495226580649614
20
16.999999657273293
30
0
11
-52.986359316855669
21
16.999999657273293
31
0
0
ENDSEC
0
SECTION
2
OBJECTS
0
DICTIONARY
5
C
100
AcDbDictionary
3
ACAD_GROUP
350
D
3
ACAD_MLINESTYLE
350
17
0
DICTIONARY
5
D
100
AcDbDictionary
0
DICTIONARY
5
1A
330
C
100
AcDbDictionary
0
DICTIONARY
5
17
100
AcDbDictionary
0
ENDSEC
0
EOF
