999
Generated by Autodesk CAM - http://cam.autodesk.com
0
SECTION
2
HEADER
9
$ACADVER
1
AC1006
9
$ANGBASE
50
0
9
$ANGDIR
70
0
0
ENDSEC
0
SECTION
2
BLOCKS
0
ENDSEC
9
$EXTMIN
10
-89
20
-0.66
30
0
9
$EXTMAX
10
89
20
178
30
17.5
0
SECTION
2
ENTITIES
0
LINE
8
1
62
3
10
-75
20
-0.66
30
17.5
11
-75
21
-0.66
31
17.5
0
LINE
8
1
62
3
10
-75
20
-0.66
30
17.5
11
-75
21
-0.66
31
2.5
0
LINE
8
1
62
2
10
-75
20
-0.66
30
2.5
11
-80
21
8
31
2.5
0
ARC
8
1
62
1
10
-80
20
9
30
2.5
40
1
50
180
51
-90
0
LINE
8
1
62
1
10
-81
20
9
30
2.5
11
-81
21
36.144
31
2.5
0
ARC
8
1
62
1
10
-82
20
36.144
30
2.5
40
1
50
0
51
109.998008
0
LINE
8
1
62
1
10
-82.342
20
37.083
30
2.5
11
-84.974
21
36.125
31
2.5
0
ARC
8
1
62
1
10
-86
20
38.944
30
2.5
40
3
50
180
51
-70.000585
0
LINE
8
1
62
1
10
-89
20
38.944
30
2.5
11
-89
21
64.056
31
2.5
0
ARC
8
1
62
1
10
-86
20
64.056
30
2.5
40
3
50
70.001208
51
180
0
LINE
8
1
62
1
10
-84.974
20
66.875
30
2.5
11
-74.342
21
63.005
31
2.5
0
ARC
8
1
62
1
10
-74
20
63.944
30
2.5
40
1
50
-109.998008
51
0
0
LINE
8
1
62
1
10
-73
20
63.944
30
2.5
11
-73
21
89.055
31
2.5
0
ARC
8
1
62
1
10
-74
20
89.056
30
2.5
40
1
50
-0.000437
51
109.998157
0
LINE
8
1
62
1
10
-74.342
20
89.995
30
2.5
11
-84.974
21
86.125
31
2.5
0
ARC
8
1
62
1
10
-86
20
88.944
30
2.5
40
3
50
180
51
-70.000697
0
LINE
8
1
62
1
10
-89
20
88.944
30
2.5
11
-89
21
114.055
31
2.5
0
ARC
8
1
62
1
10
-86
20
114.055
30
2.5
40
3
50
70.012786
51
-179.995338
0
LINE
8
1
62
1
10
-84.974
20
116.875
30
2.5
11
-84.974
21
116.875
31
2.5
0
LINE
8
1
62
1
10
-84.974
20
116.875
30
2.5
11
-74.342
21
113.005
31
2.5
0
ARC
8
1
62
1
10
-74
20
113.945
30
2.5
40
1
50
-109.981538
51
0.005681
0
LINE
8
1
62
1
10
-73
20
113.945
30
2.5
11
-73
21
139.055
31
2.5
0
ARC
8
1
62
1
10
-74
20
139.055
30
2.5
40
1
50
-0.011362
51
109.98165
0
LINE
8
1
62
1
10
-74.342
20
139.995
30
2.5
11
-76.974
21
139.037
31
2.5
0
ARC
8
1
62
1
10
-78
20
141.856
30
2.5
40
3
50
-179.996503
51
-69.994609
0
LINE
8
1
62
1
10
-81
20
141.856
30
2.5
11
-81
21
169
31
2.5
0
ARC
8
1
62
1
10
-80
20
169
30
2.5
40
1
50
90
51
180
0
LINE
8
1
62
1
10
-80
20
170
30
2.5
11
-52.856
21
170
31
2.5
0
ARC
8
1
62
1
10
-52.856
20
171
30
2.5
40
1
50
-90
51
19.998419
0
LINE
8
1
62
1
10
-51.917
20
171.342
30
2.5
11
-52.875
21
173.974
31
2.5
0
ARC
8
1
62
1
10
-50.056
20
175
30
2.5
40
3
50
90
51
-160.000585
0
LINE
8
1
62
1
10
-50.056
20
178
30
2.5
11
-24.944
21
178
31
2.5
0
ARC
8
1
62
1
10
-24.944
20
175
30
2.5
40
3
50
-19.998792
51
90
0
LINE
8
1
62
1
10
-22.125
20
173.974
30
2.5
11
-25.995
21
163.342
31
2.5
0
ARC
8
1
62
1
10
-25.056
20
163
30
2.5
40
1
50
160.001544
51
-90
0
LINE
8
1
62
1
10
-25.056
20
162
30
2.5
11
0.055
21
162
31
2.5
0
ARC
8
1
62
1
10
0.055
20
163
30
2.5
40
1
50
-89.999789
51
19.99865
0
LINE
8
1
62
1
10
0.995
20
163.342
30
2.5
11
-2.875
21
173.974
31
2.5
0
ARC
8
1
62
1
10
-0.055
20
175
30
2.5
40
3
50
90.000149
51
-160.000825
0
LINE
8
1
62
1
10
-0.055
20
178
30
2.5
11
25.056
21
178
31
2.5
0
ARC
8
1
62
1
10
25.056
20
175
30
2.5
40
3
50
-19.998792
51
90
0
LINE
8
1
62
1
10
27.875
20
173.974
30
2.5
11
24.005
21
163.342
31
2.5
0
ARC
8
1
62
1
10
24.944
20
163
30
2.5
40
1
50
160.001544
51
-90
0
LINE
8
1
62
1
10
24.944
20
162
30
2.5
11
50.056
21
162
31
2.5
0
ARC
8
1
62
1
10
50.056
20
163
30
2.5
40
1
50
-90
51
19.998419
0
LINE
8
1
62
1
10
50.995
20
163.342
30
2.5
11
50.037
21
165.974
31
2.5
0
ARC
8
1
62
1
10
52.856
20
167
30
2.5
40
3
50
90
51
-160.000585
0
LINE
8
1
62
1
10
52.856
20
170
30
2.5
11
80
21
170
31
2.5
0
ARC
8
1
62
1
10
80
20
169
30
2.5
40
1
50
0
51
90
0
LINE
8
1
62
1
10
81
20
169
30
2.5
11
81
21
141.856
31
2.5
0
ARC
8
1
62
1
10
82
20
141.856
30
2.5
40
1
50
-179.994753
51
-69.993248
0
LINE
8
1
62
1
10
82.342
20
140.917
30
2.5
11
82.342
21
140.917
31
2.5
0
LINE
8
1
62
1
10
82.342
20
140.917
30
2.5
11
84.974
21
141.875
31
2.5
0
LINE
8
1
62
1
10
84.974
20
141.875
30
2.5
11
84.974
21
141.875
31
2.5
0
ARC
8
1
62
1
10
86
20
139.055
30
2.5
40
3
50
-0.004371
51
109.987164
0
LINE
8
1
62
1
10
89
20
139.055
30
2.5
11
89
21
113.945
31
2.5
0
ARC
8
1
62
1
10
86
20
113.945
30
2.5
40
3
50
-109.987214
51
0.004662
0
LINE
8
1
62
1
10
84.974
20
111.125
30
2.5
11
84.974
21
111.125
31
2.5
0
LINE
8
1
62
1
10
84.974
20
111.125
30
2.5
11
74.342
21
114.995
31
2.5
0
ARC
8
1
62
1
10
74
20
114.055
30
2.5
40
1
50
70.018462
51
-179.994319
0
LINE
8
1
62
1
10
73
20
114.055
30
2.5
11
73
21
88.945
31
2.5
0
ARC
8
1
62
1
10
74
20
88.944
30
2.5
40
1
50
179.999563
51
-70.001843
0
LINE
8
1
62
1
10
74.342
20
88.005
30
2.5
11
84.974
21
91.875
31
2.5
0
ARC
8
1
62
1
10
86
20
89.056
30
2.5
40
3
50
0
51
109.999303
0
LINE
8
1
62
1
10
89
20
89.056
30
2.5
11
89
21
63.944
31
2.5
0
ARC
8
1
62
1
10
86
20
63.944
30
2.5
40
3
50
-109.998792
51
0
0
LINE
8
1
62
1
10
84.974
20
61.125
30
2.5
11
74.342
21
64.995
31
2.5
0
ARC
8
1
62
1
10
74
20
64.056
30
2.5
40
1
50
70.001843
51
-179.999563
0
LINE
8
1
62
1
10
73
20
64.055
30
2.5
11
73
21
38.944
31
2.5
0
ARC
8
1
62
1
10
74
20
38.944
30
2.5
40
1
50
180
51
-70.001992
0
LINE
8
1
62
1
10
74.342
20
38.005
30
2.5
11
76.974
21
38.963
31
2.5
0
ARC
8
1
62
1
10
78
20
36.144
30
2.5
40
3
50
0
51
109.999415
0
LINE
8
1
62
1
10
81
20
36.144
30
2.5
11
81
21
9
31
2.5
0
ARC
8
1
62
1
10
80
20
9
30
2.5
40
1
50
-90
51
0
0
LINE
8
1
62
1
10
80
20
8
30
2.5
11
52.856
21
8
31
2.5
0
ARC
8
1
62
1
10
52.856
20
7
30
2.5
40
1
50
89.999781
51
-160.000888
0
LINE
8
1
62
1
10
51.917
20
6.658
30
2.5
11
52.875
21
4.026
31
2.5
0
ARC
8
1
62
1
10
50.056
20
3
30
2.5
40
3
50
-90.000073
51
20.000188
0
LINE
8
1
62
1
10
50.056
20
0
30
2.5
11
24.945
21
0
31
2.5
0
ARC
8
1
62
1
10
24.944
20
3
30
2.5
40
3
50
160.000282
51
-89.999854
0
LINE
8
1
62
1
10
22.125
20
4.026
30
2.5
11
25.995
21
14.658
31
2.5
0
ARC
8
1
62
1
10
25.056
20
15
30
2.5
40
1
50
-19.998059
51
90
0
LINE
8
1
62
1
10
25.056
20
16
30
2.5
11
-0.055
21
16
31
2.5
0
ARC
8
1
62
1
10
-0.055
20
15
30
2.5
40
1
50
90.000211
51
-160.001251
0
LINE
8
1
62
1
10
-0.995
20
14.658
30
2.5
11
2.875
21
4.026
31
2.5
0
ARC
8
1
62
1
10
0.055
20
3
30
2.5
40
3
50
-89.999988
51
19.999997
0
LINE
8
1
62
1
10
0.055
20
0
30
2.5
11
-25.055
21
0
31
2.5
0
ARC
8
1
62
1
10
-25.056
20
3
30
2.5
40
3
50
160.000282
51
-89.999854
0
LINE
8
1
62
1
10
-27.875
20
4.026
30
2.5
11
-24.005
21
14.658
31
2.5
0
ARC
8
1
62
1
10
-24.944
20
15
30
2.5
40
1
50
-19.998059
51
90
0
LINE
8
1
62
1
10
-24.944
20
16
30
2.5
11
-50.056
21
16
31
2.5
0
ARC
8
1
62
1
10
-50.056
20
15
30
2.5
40
1
50
90
51
-160.001992
0
LINE
8
1
62
1
10
-50.995
20
14.658
30
2.5
11
-50.037
21
12.026
31
2.5
0
ARC
8
1
62
1
10
-52.856
20
11
30
2.5
40
3
50
-90
51
19.99938
0
LINE
8
1
62
1
10
-52.856
20
8
30
2.5
11
-80
21
8
31
2.5
0
LINE
8
1
62
2
10
-80
20
8
30
2.5
11
-85
21
-0.66
31
2.5
0
LINE
8
1
62
3
10
-85
20
-0.66
30
2.5
11
-85
21
-0.66
31
17.5
0
ENDSEC
0
EOF
