999
Generated by Autodesk CAM - http://cam.autodesk.com
0
SECTION
2
HEADER
9
$ACADVER
1
AC1006
9
$ANGBASE
50
0
9
$ANGDIR
70
0
0
ENDSEC
0
SECTION
2
BLOCKS
0
ENDSEC
9
$EXTMIN
10
-1
20
-1.6
30
-6.25
9
$EXTMAX
10
51
20
51
30
10
0
SECTION
2
ENTITIES
0
LINE
8
1
62
1
10
0.2
20
-1.6
30
10
11
0.2
21
-1.6
31
10
0
LINE
8
1
62
1
10
0.2
20
-1.6
30
10
11
0.2
21
-1.6
31
5
0
LINE
8
1
62
4
10
0.2
20
-1.6
30
5
11
0.2
21
-1.6
31
2
0
LINE
8
1
62
4
10
0.2
20
-1.6
30
2
11
0.2
21
-1.6
31
-0.8
0
LINE
8
1
62
2
10
0.2
20
-1.6
30
-0.8
11
0.2
21
-1.596
31
-0.839
0
LINE
8
1
62
2
10
0.2
20
-1.596
30
-0.839
11
0.2
21
-1.585
31
-0.877
0
LINE
8
1
62
2
10
0.2
20
-1.585
30
-0.877
11
0.2
21
-1.566
31
-0.911
0
LINE
8
1
62
2
10
0.2
20
-1.566
30
-0.911
11
0.2
21
-1.541
31
-0.941
0
LINE
8
1
62
2
10
0.2
20
-1.541
30
-0.941
11
0.2
21
-1.511
31
-0.966
0
LINE
8
1
62
2
10
0.2
20
-1.511
30
-0.966
11
0.2
21
-1.477
31
-0.985
0
LINE
8
1
62
2
10
0.2
20
-1.477
30
-0.985
11
0.2
21
-1.439
31
-0.996
0
LINE
8
1
62
2
10
0.2
20
-1.439
30
-0.996
11
0.2
21
-1.4
31
-1
0
LINE
8
1
62
2
10
0.2
20
-1.4
30
-1
11
0.2
21
-1.2
31
-1
0
ARC
8
1
62
2
10
0
20
-1.2
30
-1
40
0.2
50
0
51
90
0
ARC
8
1
62
1
10
0
20
0
30
-1
40
1
50
180
51
-90
0
LINE
8
1
62
1
10
-1
20
0
30
-1
11
-1
21
50
31
-1
0
ARC
8
1
62
1
10
0
20
50
30
-1
40
1
50
90
51
180
0
LINE
8
1
62
1
10
0
20
51
30
-1
11
50
21
51
31
-1
0
ARC
8
1
62
1
10
50
20
50
30
-1
40
1
50
0
51
90
0
LINE
8
1
62
1
10
51
20
50
30
-1
11
51
21
0
31
-1
0
ARC
8
1
62
1
10
50
20
0
30
-1
40
1
50
-90
51
0
0
LINE
8
1
62
1
10
50
20
-1
30
-1
11
25
21
-1
31
-1
0
ARC
8
1
62
1
10
25
20
0
30
-1
40
1
50
180
51
-90
0
LINE
8
1
62
1
10
24
20
0
30
-1
11
24
21
15
31
-1
0
ARC
8
1
62
1
10
25
20
15
30
-1
40
1
50
90
51
180
0
LINE
8
1
62
1
10
25
20
16
30
-1
11
34
21
16
31
-1
0
LINE
8
1
62
1
10
34
20
16
30
-1
11
34
21
39
31
-1
0
LINE
8
1
62
1
10
34
20
39
30
-1
11
11
21
39
31
-1
0
LINE
8
1
62
1
10
11
20
39
30
-1
11
11
21
16
31
-1
0
LINE
8
1
62
1
10
11
20
16
30
-1
11
18.43
21
16
31
-1
0
ARC
8
1
62
1
10
18.43
20
15
30
-1
40
1
50
0
51
90
0
LINE
8
1
62
1
10
19.43
20
15
30
-1
11
19.43
21
0
31
-1
0
ARC
8
1
62
1
10
18.43
20
0
30
-1
40
1
50
-90
51
0
0
LINE
8
1
62
1
10
18.43
20
-1
30
-1
11
0
21
-1
31
-1
0
ARC
8
1
62
2
10
0
20
-1.2
30
-1
40
0.2
50
90
51
180
0
LINE
8
1
62
2
10
-0.2
20
-1.2
30
-1
11
-0.2
21
-1.4
31
-1
0
LINE
8
1
62
2
10
-0.2
20
-1.4
30
-1
11
-0.2
21
-1.439
31
-0.996
0
LINE
8
1
62
2
10
-0.2
20
-1.439
30
-0.996
11
-0.2
21
-1.477
31
-0.985
0
LINE
8
1
62
2
10
-0.2
20
-1.477
30
-0.985
11
-0.2
21
-1.511
31
-0.966
0
LINE
8
1
62
2
10
-0.2
20
-1.511
30
-0.966
11
-0.2
21
-1.541
31
-0.941
0
LINE
8
1
62
2
10
-0.2
20
-1.541
30
-0.941
11
-0.2
21
-1.566
31
-0.911
0
LINE
8
1
62
2
10
-0.2
20
-1.566
30
-0.911
11
-0.2
21
-1.585
31
-0.877
0
LINE
8
1
62
2
10
-0.2
20
-1.585
30
-0.877
11
-0.2
21
-1.596
31
-0.839
0
LINE
8
1
62
2
10
-0.2
20
-1.596
30
-0.839
11
-0.2
21
-1.6
31
-0.8
0
LINE
8
1
62
1
10
-0.2
20
-1.6
30
-0.8
11
-0.2
21
-1.6
31
5
0
LINE
8
1
62
1
10
-0.2
20
-1.6
30
5
11
0.2
21
-1.6
31
5
0
LINE
8
1
62
4
10
0.2
20
-1.6
30
5
11
0.2
21
-1.6
31
1
0
LINE
8
1
62
4
10
0.2
20
-1.6
30
1
11
0.2
21
-1.6
31
-1.8
0
LINE
8
1
62
2
10
0.2
20
-1.6
30
-1.8
11
0.2
21
-1.596
31
-1.839
0
LINE
8
1
62
2
10
0.2
20
-1.596
30
-1.839
11
0.2
21
-1.585
31
-1.877
0
LINE
8
1
62
2
10
0.2
20
-1.585
30
-1.877
11
0.2
21
-1.566
31
-1.911
0
LINE
8
1
62
2
10
0.2
20
-1.566
30
-1.911
11
0.2
21
-1.541
31
-1.941
0
LINE
8
1
62
2
10
0.2
20
-1.541
30
-1.941
11
0.2
21
-1.511
31
-1.966
0
LINE
8
1
62
2
10
0.2
20
-1.511
30
-1.966
11
0.2
21
-1.477
31
-1.985
0
LINE
8
1
62
2
10
0.2
20
-1.477
30
-1.985
11
0.2
21
-1.439
31
-1.996
0
LINE
8
1
62
2
10
0.2
20
-1.439
30
-1.996
11
0.2
21
-1.4
31
-2
0
LINE
8
1
62
2
10
0.2
20
-1.4
30
-2
11
0.2
21
-1.2
31
-2
0
ARC
8
1
62
2
10
0
20
-1.2
30
-2
40
0.2
50
0
51
90
0
ARC
8
1
62
1
10
0
20
0
30
-2
40
1
50
180
51
-90
0
LINE
8
1
62
1
10
-1
20
0
30
-2
11
-1
21
50
31
-2
0
ARC
8
1
62
1
10
0
20
50
30
-2
40
1
50
90
51
180
0
LINE
8
1
62
1
10
0
20
51
30
-2
11
50
21
51
31
-2
0
ARC
8
1
62
1
10
50
20
50
30
-2
40
1
50
0
51
90
0
LINE
8
1
62
1
10
51
20
50
30
-2
11
51
21
0
31
-2
0
ARC
8
1
62
1
10
50
20
0
30
-2
40
1
50
-90
51
0
0
LINE
8
1
62
1
10
50
20
-1
30
-2
11
25
21
-1
31
-2
0
ARC
8
1
62
1
10
25
20
0
30
-2
40
1
50
180
51
-90
0
LINE
8
1
62
1
10
24
20
0
30
-2
11
24
21
15
31
-2
0
ARC
8
1
62
1
10
25
20
15
30
-2
40
1
50
90
51
180
0
LINE
8
1
62
1
10
25
20
16
30
-2
11
34
21
16
31
-2
0
LINE
8
1
62
1
10
34
20
16
30
-2
11
34
21
39
31
-2
0
LINE
8
1
62
1
10
34
20
39
30
-2
11
11
21
39
31
-2
0
LINE
8
1
62
1
10
11
20
39
30
-2
11
11
21
16
31
-2
0
LINE
8
1
62
1
10
11
20
16
30
-2
11
18.43
21
16
31
-2
0
ARC
8
1
62
1
10
18.43
20
15
30
-2
40
1
50
0
51
90
0
LINE
8
1
62
1
10
19.43
20
15
30
-2
11
19.43
21
0
31
-2
0
ARC
8
1
62
1
10
18.43
20
0
30
-2
40
1
50
-90
51
0
0
LINE
8
1
62
1
10
18.43
20
-1
30
-2
11
0
21
-1
31
-2
0
ARC
8
1
62
2
10
0
20
-1.2
30
-2
40
0.2
50
90
51
180
0
LINE
8
1
62
2
10
-0.2
20
-1.2
30
-2
11
-0.2
21
-1.4
31
-2
0
LINE
8
1
62
2
10
-0.2
20
-1.4
30
-2
11
-0.2
21
-1.439
31
-1.996
0
LINE
8
1
62
2
10
-0.2
20
-1.439
30
-1.996
11
-0.2
21
-1.477
31
-1.985
0
LINE
8
1
62
2
10
-0.2
20
-1.477
30
-1.985
11
-0.2
21
-1.511
31
-1.966
0
LINE
8
1
62
2
10
-0.2
20
-1.511
30
-1.966
11
-0.2
21
-1.541
31
-1.941
0
LINE
8
1
62
2
10
-0.2
20
-1.541
30
-1.941
11
-0.2
21
-1.566
31
-1.911
0
LINE
8
1
62
2
10
-0.2
20
-1.566
30
-1.911
11
-0.2
21
-1.585
31
-1.877
0
LINE
8
1
62
2
10
-0.2
20
-1.585
30
-1.877
11
-0.2
21
-1.596
31
-1.839
0
LINE
8
1
62
2
10
-0.2
20
-1.596
30
-1.839
11
-0.2
21
-1.6
31
-1.8
0
LINE
8
1
62
1
10
-0.2
20
-1.6
30
-1.8
11
-0.2
21
-1.6
31
5
0
LINE
8
1
62
1
10
-0.2
20
-1.6
30
5
11
0.2
21
-1.6
31
5
0
LINE
8
1
62
4
10
0.2
20
-1.6
30
5
11
0.2
21
-1.6
31
0
0
LINE
8
1
62
4
10
0.2
20
-1.6
30
0
11
0.2
21
-1.6
31
-2.8
0
LINE
8
1
62
2
10
0.2
20
-1.6
30
-2.8
11
0.2
21
-1.596
31
-2.839
0
LINE
8
1
62
2
10
0.2
20
-1.596
30
-2.839
11
0.2
21
-1.585
31
-2.877
0
LINE
8
1
62
2
10
0.2
20
-1.585
30
-2.877
11
0.2
21
-1.566
31
-2.911
0
LINE
8
1
62
2
10
0.2
20
-1.566
30
-2.911
11
0.2
21
-1.541
31
-2.941
0
LINE
8
1
62
2
10
0.2
20
-1.541
30
-2.941
11
0.2
21
-1.511
31
-2.966
0
LINE
8
1
62
2
10
0.2
20
-1.511
30
-2.966
11
0.2
21
-1.477
31
-2.985
0
LINE
8
1
62
2
10
0.2
20
-1.477
30
-2.985
11
0.2
21
-1.439
31
-2.996
0
LINE
8
1
62
2
10
0.2
20
-1.439
30
-2.996
11
0.2
21
-1.4
31
-3
0
LINE
8
1
62
2
10
0.2
20
-1.4
30
-3
11
0.2
21
-1.2
31
-3
0
ARC
8
1
62
2
10
0
20
-1.2
30
-3
40
0.2
50
0
51
90
0
ARC
8
1
62
1
10
0
20
0
30
-3
40
1
50
180
51
-90
0
LINE
8
1
62
1
10
-1
20
0
30
-3
11
-1
21
50
31
-3
0
ARC
8
1
62
1
10
0
20
50
30
-3
40
1
50
90
51
180
0
LINE
8
1
62
1
10
0
20
51
30
-3
11
50
21
51
31
-3
0
ARC
8
1
62
1
10
50
20
50
30
-3
40
1
50
0
51
90
0
LINE
8
1
62
1
10
51
20
50
30
-3
11
51
21
0
31
-3
0
ARC
8
1
62
1
10
50
20
0
30
-3
40
1
50
-90
51
0
0
LINE
8
1
62
1
10
50
20
-1
30
-3
11
25
21
-1
31
-3
0
ARC
8
1
62
1
10
25
20
0
30
-3
40
1
50
180
51
-90
0
LINE
8
1
62
1
10
24
20
0
30
-3
11
24
21
15
31
-3
0
ARC
8
1
62
1
10
25
20
15
30
-3
40
1
50
90
51
180
0
LINE
8
1
62
1
10
25
20
16
30
-3
11
34
21
16
31
-3
0
LINE
8
1
62
1
10
34
20
16
30
-3
11
34
21
39
31
-3
0
LINE
8
1
62
1
10
34
20
39
30
-3
11
11
21
39
31
-3
0
LINE
8
1
62
1
10
11
20
39
30
-3
11
11
21
16
31
-3
0
LINE
8
1
62
1
10
11
20
16
30
-3
11
18.43
21
16
31
-3
0
ARC
8
1
62
1
10
18.43
20
15
30
-3
40
1
50
0
51
90
0
LINE
8
1
62
1
10
19.43
20
15
30
-3
11
19.43
21
0
31
-3
0
ARC
8
1
62
1
10
18.43
20
0
30
-3
40
1
50
-90
51
0
0
LINE
8
1
62
1
10
18.43
20
-1
30
-3
11
0
21
-1
31
-3
0
ARC
8
1
62
2
10
0
20
-1.2
30
-3
40
0.2
50
90
51
180
0
LINE
8
1
62
2
10
-0.2
20
-1.2
30
-3
11
-0.2
21
-1.4
31
-3
0
LINE
8
1
62
2
10
-0.2
20
-1.4
30
-3
11
-0.2
21
-1.439
31
-2.996
0
LINE
8
1
62
2
10
-0.2
20
-1.439
30
-2.996
11
-0.2
21
-1.477
31
-2.985
0
LINE
8
1
62
2
10
-0.2
20
-1.477
30
-2.985
11
-0.2
21
-1.511
31
-2.966
0
LINE
8
1
62
2
10
-0.2
20
-1.511
30
-2.966
11
-0.2
21
-1.541
31
-2.941
0
LINE
8
1
62
2
10
-0.2
20
-1.541
30
-2.941
11
-0.2
21
-1.566
31
-2.911
0
LINE
8
1
62
2
10
-0.2
20
-1.566
30
-2.911
11
-0.2
21
-1.585
31
-2.877
0
LINE
8
1
62
2
10
-0.2
20
-1.585
30
-2.877
11
-0.2
21
-1.596
31
-2.839
0
LINE
8
1
62
2
10
-0.2
20
-1.596
30
-2.839
11
-0.2
21
-1.6
31
-2.8
0
LINE
8
1
62
1
10
-0.2
20
-1.6
30
-2.8
11
-0.2
21
-1.6
31
5
0
LINE
8
1
62
1
10
-0.2
20
-1.6
30
5
11
0.2
21
-1.6
31
5
0
LINE
8
1
62
4
10
0.2
20
-1.6
30
5
11
0.2
21
-1.6
31
-1
0
LINE
8
1
62
4
10
0.2
20
-1.6
30
-1
11
0.2
21
-1.6
31
-3.8
0
LINE
8
1
62
2
10
0.2
20
-1.6
30
-3.8
11
0.2
21
-1.596
31
-3.839
0
LINE
8
1
62
2
10
0.2
20
-1.596
30
-3.839
11
0.2
21
-1.585
31
-3.877
0
LINE
8
1
62
2
10
0.2
20
-1.585
30
-3.877
11
0.2
21
-1.566
31
-3.911
0
LINE
8
1
62
2
10
0.2
20
-1.566
30
-3.911
11
0.2
21
-1.541
31
-3.941
0
LINE
8
1
62
2
10
0.2
20
-1.541
30
-3.941
11
0.2
21
-1.511
31
-3.966
0
LINE
8
1
62
2
10
0.2
20
-1.511
30
-3.966
11
0.2
21
-1.477
31
-3.985
0
LINE
8
1
62
2
10
0.2
20
-1.477
30
-3.985
11
0.2
21
-1.439
31
-3.996
0
LINE
8
1
62
2
10
0.2
20
-1.439
30
-3.996
11
0.2
21
-1.4
31
-4
0
LINE
8
1
62
2
10
0.2
20
-1.4
30
-4
11
0.2
21
-1.2
31
-4
0
ARC
8
1
62
2
10
0
20
-1.2
30
-4
40
0.2
50
0
51
90
0
ARC
8
1
62
1
10
0
20
0
30
-4
40
1
50
180
51
-90
0
LINE
8
1
62
1
10
-1
20
0
30
-4
11
-1
21
50
31
-4
0
ARC
8
1
62
1
10
0
20
50
30
-4
40
1
50
90
51
180
0
LINE
8
1
62
1
10
0
20
51
30
-4
11
50
21
51
31
-4
0
ARC
8
1
62
1
10
50
20
50
30
-4
40
1
50
0
51
90
0
LINE
8
1
62
1
10
51
20
50
30
-4
11
51
21
0
31
-4
0
ARC
8
1
62
1
10
50
20
0
30
-4
40
1
50
-90
51
0
0
LINE
8
1
62
1
10
50
20
-1
30
-4
11
25
21
-1
31
-4
0
ARC
8
1
62
1
10
25
20
0
30
-4
40
1
50
180
51
-90
0
LINE
8
1
62
1
10
24
20
0
30
-4
11
24
21
15
31
-4
0
ARC
8
1
62
1
10
25
20
15
30
-4
40
1
50
90
51
180
0
LINE
8
1
62
1
10
25
20
16
30
-4
11
34
21
16
31
-4
0
LINE
8
1
62
1
10
34
20
16
30
-4
11
34
21
39
31
-4
0
LINE
8
1
62
1
10
34
20
39
30
-4
11
11
21
39
31
-4
0
LINE
8
1
62
1
10
11
20
39
30
-4
11
11
21
16
31
-4
0
LINE
8
1
62
1
10
11
20
16
30
-4
11
18.43
21
16
31
-4
0
ARC
8
1
62
1
10
18.43
20
15
30
-4
40
1
50
0
51
90
0
LINE
8
1
62
1
10
19.43
20
15
30
-4
11
19.43
21
0
31
-4
0
ARC
8
1
62
1
10
18.43
20
0
30
-4
40
1
50
-90
51
0
0
LINE
8
1
62
1
10
18.43
20
-1
30
-4
11
0
21
-1
31
-4
0
ARC
8
1
62
2
10
0
20
-1.2
30
-4
40
0.2
50
90
51
180
0
LINE
8
1
62
2
10
-0.2
20
-1.2
30
-4
11
-0.2
21
-1.4
31
-4
0
LINE
8
1
62
2
10
-0.2
20
-1.4
30
-4
11
-0.2
21
-1.439
31
-3.996
0
LINE
8
1
62
2
10
-0.2
20
-1.439
30
-3.996
11
-0.2
21
-1.477
31
-3.985
0
LINE
8
1
62
2
10
-0.2
20
-1.477
30
-3.985
11
-0.2
21
-1.511
31
-3.966
0
LINE
8
1
62
2
10
-0.2
20
-1.511
30
-3.966
11
-0.2
21
-1.541
31
-3.941
0
LINE
8
1
62
2
10
-0.2
20
-1.541
30
-3.941
11
-0.2
21
-1.566
31
-3.911
0
LINE
8
1
62
2
10
-0.2
20
-1.566
30
-3.911
11
-0.2
21
-1.585
31
-3.877
0
LINE
8
1
62
2
10
-0.2
20
-1.585
30
-3.877
11
-0.2
21
-1.596
31
-3.839
0
LINE
8
1
62
2
10
-0.2
20
-1.596
30
-3.839
11
-0.2
21
-1.6
31
-3.8
0
LINE
8
1
62
1
10
-0.2
20
-1.6
30
-3.8
11
-0.2
21
-1.6
31
5
0
LINE
8
1
62
1
10
-0.2
20
-1.6
30
5
11
0.2
21
-1.6
31
5
0
LINE
8
1
62
4
10
0.2
20
-1.6
30
5
11
0.2
21
-1.6
31
-2
0
LINE
8
1
62
4
10
0.2
20
-1.6
30
-2
11
0.2
21
-1.6
31
-4.8
0
LINE
8
1
62
2
10
0.2
20
-1.6
30
-4.8
11
0.2
21
-1.596
31
-4.839
0
LINE
8
1
62
2
10
0.2
20
-1.596
30
-4.839
11
0.2
21
-1.585
31
-4.877
0
LINE
8
1
62
2
10
0.2
20
-1.585
30
-4.877
11
0.2
21
-1.566
31
-4.911
0
LINE
8
1
62
2
10
0.2
20
-1.566
30
-4.911
11
0.2
21
-1.541
31
-4.941
0
LINE
8
1
62
2
10
0.2
20
-1.541
30
-4.941
11
0.2
21
-1.511
31
-4.966
0
LINE
8
1
62
2
10
0.2
20
-1.511
30
-4.966
11
0.2
21
-1.477
31
-4.985
0
LINE
8
1
62
2
10
0.2
20
-1.477
30
-4.985
11
0.2
21
-1.439
31
-4.996
0
LINE
8
1
62
2
10
0.2
20
-1.439
30
-4.996
11
0.2
21
-1.4
31
-5
0
LINE
8
1
62
2
10
0.2
20
-1.4
30
-5
11
0.2
21
-1.2
31
-5
0
ARC
8
1
62
2
10
0
20
-1.2
30
-5
40
0.2
50
0
51
90
0
ARC
8
1
62
1
10
0
20
0
30
-5
40
1
50
180
51
-90
0
LINE
8
1
62
1
10
-1
20
0
30
-5
11
-1
21
50
31
-5
0
ARC
8
1
62
1
10
0
20
50
30
-5
40
1
50
90
51
180
0
LINE
8
1
62
1
10
0
20
51
30
-5
11
50
21
51
31
-5
0
ARC
8
1
62
1
10
50
20
50
30
-5
40
1
50
0
51
90
0
LINE
8
1
62
1
10
51
20
50
30
-5
11
51
21
0
31
-5
0
ARC
8
1
62
1
10
50
20
0
30
-5
40
1
50
-90
51
0
0
LINE
8
1
62
1
10
50
20
-1
30
-5
11
25
21
-1
31
-5
0
ARC
8
1
62
1
10
25
20
0
30
-5
40
1
50
180
51
-90
0
LINE
8
1
62
1
10
24
20
0
30
-5
11
24
21
15
31
-5
0
ARC
8
1
62
1
10
25
20
15
30
-5
40
1
50
90
51
180
0
LINE
8
1
62
1
10
25
20
16
30
-5
11
34
21
16
31
-5
0
LINE
8
1
62
1
10
34
20
16
30
-5
11
34
21
39
31
-5
0
LINE
8
1
62
1
10
34
20
39
30
-5
11
11
21
39
31
-5
0
LINE
8
1
62
1
10
11
20
39
30
-5
11
11
21
16
31
-5
0
LINE
8
1
62
1
10
11
20
16
30
-5
11
18.43
21
16
31
-5
0
ARC
8
1
62
1
10
18.43
20
15
30
-5
40
1
50
0
51
90
0
LINE
8
1
62
1
10
19.43
20
15
30
-5
11
19.43
21
0
31
-5
0
ARC
8
1
62
1
10
18.43
20
0
30
-5
40
1
50
-90
51
0
0
LINE
8
1
62
1
10
18.43
20
-1
30
-5
11
0
21
-1
31
-5
0
ARC
8
1
62
2
10
0
20
-1.2
30
-5
40
0.2
50
90
51
180
0
LINE
8
1
62
2
10
-0.2
20
-1.2
30
-5
11
-0.2
21
-1.4
31
-5
0
LINE
8
1
62
2
10
-0.2
20
-1.4
30
-5
11
-0.2
21
-1.439
31
-4.996
0
LINE
8
1
62
2
10
-0.2
20
-1.439
30
-4.996
11
-0.2
21
-1.477
31
-4.985
0
LINE
8
1
62
2
10
-0.2
20
-1.477
30
-4.985
11
-0.2
21
-1.511
31
-4.966
0
LINE
8
1
62
2
10
-0.2
20
-1.511
30
-4.966
11
-0.2
21
-1.541
31
-4.941
0
LINE
8
1
62
2
10
-0.2
20
-1.541
30
-4.941
11
-0.2
21
-1.566
31
-4.911
0
LINE
8
1
62
2
10
-0.2
20
-1.566
30
-4.911
11
-0.2
21
-1.585
31
-4.877
0
LINE
8
1
62
2
10
-0.2
20
-1.585
30
-4.877
11
-0.2
21
-1.596
31
-4.839
0
LINE
8
1
62
2
10
-0.2
20
-1.596
30
-4.839
11
-0.2
21
-1.6
31
-4.8
0
LINE
8
1
62
1
10
-0.2
20
-1.6
30
-4.8
11
-0.2
21
-1.6
31
5
0
LINE
8
1
62
1
10
-0.2
20
-1.6
30
5
11
0.2
21
-1.6
31
5
0
LINE
8
1
62
4
10
0.2
20
-1.6
30
5
11
0.2
21
-1.6
31
-3
0
LINE
8
1
62
4
10
0.2
20
-1.6
30
-3
11
0.2
21
-1.6
31
-5.8
0
LINE
8
1
62
2
10
0.2
20
-1.6
30
-5.8
11
0.2
21
-1.596
31
-5.839
0
LINE
8
1
62
2
10
0.2
20
-1.596
30
-5.839
11
0.2
21
-1.585
31
-5.877
0
LINE
8
1
62
2
10
0.2
20
-1.585
30
-5.877
11
0.2
21
-1.566
31
-5.911
0
LINE
8
1
62
2
10
0.2
20
-1.566
30
-5.911
11
0.2
21
-1.541
31
-5.941
0
LINE
8
1
62
2
10
0.2
20
-1.541
30
-5.941
11
0.2
21
-1.511
31
-5.966
0
LINE
8
1
62
2
10
0.2
20
-1.511
30
-5.966
11
0.2
21
-1.477
31
-5.985
0
LINE
8
1
62
2
10
0.2
20
-1.477
30
-5.985
11
0.2
21
-1.439
31
-5.996
0
LINE
8
1
62
2
10
0.2
20
-1.439
30
-5.996
11
0.2
21
-1.4
31
-6
0
LINE
8
1
62
2
10
0.2
20
-1.4
30
-6
11
0.2
21
-1.2
31
-6
0
ARC
8
1
62
2
10
0
20
-1.2
30
-6
40
0.2
50
0
51
90
0
ARC
8
1
62
1
10
0
20
0
30
-6
40
1
50
180
51
-90
0
LINE
8
1
62
1
10
-1
20
0
30
-6
11
-1
21
50
31
-6
0
ARC
8
1
62
1
10
0
20
50
30
-6
40
1
50
90
51
180
0
LINE
8
1
62
1
10
0
20
51
30
-6
11
50
21
51
31
-6
0
ARC
8
1
62
1
10
50
20
50
30
-6
40
1
50
0
51
90
0
LINE
8
1
62
1
10
51
20
50
30
-6
11
51
21
0
31
-6
0
ARC
8
1
62
1
10
50
20
0
30
-6
40
1
50
-90
51
0
0
LINE
8
1
62
1
10
50
20
-1
30
-6
11
25
21
-1
31
-6
0
ARC
8
1
62
1
10
25
20
0
30
-6
40
1
50
180
51
-90
0
LINE
8
1
62
1
10
24
20
0
30
-6
11
24
21
15
31
-6
0
ARC
8
1
62
1
10
25
20
15
30
-6
40
1
50
90
51
180
0
LINE
8
1
62
1
10
25
20
16
30
-6
11
34
21
16
31
-6
0
LINE
8
1
62
1
10
34
20
16
30
-6
11
34
21
39
31
-6
0
LINE
8
1
62
1
10
34
20
39
30
-6
11
11
21
39
31
-6
0
LINE
8
1
62
1
10
11
20
39
30
-6
11
11
21
16
31
-6
0
LINE
8
1
62
1
10
11
20
16
30
-6
11
18.43
21
16
31
-6
0
ARC
8
1
62
1
10
18.43
20
15
30
-6
40
1
50
0
51
90
0
LINE
8
1
62
1
10
19.43
20
15
30
-6
11
19.43
21
0
31
-6
0
ARC
8
1
62
1
10
18.43
20
0
30
-6
40
1
50
-90
51
0
0
LINE
8
1
62
1
10
18.43
20
-1
30
-6
11
0
21
-1
31
-6
0
ARC
8
1
62
2
10
0
20
-1.2
30
-6
40
0.2
50
90
51
180
0
LINE
8
1
62
2
10
-0.2
20
-1.2
30
-6
11
-0.2
21
-1.4
31
-6
0
LINE
8
1
62
2
10
-0.2
20
-1.4
30
-6
11
-0.2
21
-1.439
31
-5.996
0
LINE
8
1
62
2
10
-0.2
20
-1.439
30
-5.996
11
-0.2
21
-1.477
31
-5.985
0
LINE
8
1
62
2
10
-0.2
20
-1.477
30
-5.985
11
-0.2
21
-1.511
31
-5.966
0
LINE
8
1
62
2
10
-0.2
20
-1.511
30
-5.966
11
-0.2
21
-1.541
31
-5.941
0
LINE
8
1
62
2
10
-0.2
20
-1.541
30
-5.941
11
-0.2
21
-1.566
31
-5.911
0
LINE
8
1
62
2
10
-0.2
20
-1.566
30
-5.911
11
-0.2
21
-1.585
31
-5.877
0
LINE
8
1
62
2
10
-0.2
20
-1.585
30
-5.877
11
-0.2
21
-1.596
31
-5.839
0
LINE
8
1
62
2
10
-0.2
20
-1.596
30
-5.839
11
-0.2
21
-1.6
31
-5.8
0
LINE
8
1
62
1
10
-0.2
20
-1.6
30
-5.8
11
-0.2
21
-1.6
31
5
0
LINE
8
1
62
1
10
-0.2
20
-1.6
30
5
11
0.2
21
-1.6
31
5
0
LINE
8
1
62
4
10
0.2
20
-1.6
30
5
11
0.2
21
-1.6
31
-4
0
LINE
8
1
62
4
10
0.2
20
-1.6
30
-4
11
0.2
21
-1.6
31
-6.05
0
LINE
8
1
62
2
10
0.2
20
-1.6
30
-6.05
11
0.2
21
-1.596
31
-6.089
0
LINE
8
1
62
2
10
0.2
20
-1.596
30
-6.089
11
0.2
21
-1.585
31
-6.127
0
LINE
8
1
62
2
10
0.2
20
-1.585
30
-6.127
11
0.2
21
-1.566
31
-6.161
0
LINE
8
1
62
2
10
0.2
20
-1.566
30
-6.161
11
0.2
21
-1.541
31
-6.191
0
LINE
8
1
62
2
10
0.2
20
-1.541
30
-6.191
11
0.2
21
-1.511
31
-6.216
0
LINE
8
1
62
2
10
0.2
20
-1.511
30
-6.216
11
0.2
21
-1.477
31
-6.235
0
LINE
8
1
62
2
10
0.2
20
-1.477
30
-6.235
11
0.2
21
-1.439
31
-6.246
0
LINE
8
1
62
2
10
0.2
20
-1.439
30
-6.246
11
0.2
21
-1.4
31
-6.25
0
LINE
8
1
62
2
10
0.2
20
-1.4
30
-6.25
11
0.2
21
-1.2
31
-6.25
0
ARC
8
1
62
2
10
0
20
-1.2
30
-6.25
40
0.2
50
0
51
90
0
ARC
8
1
62
1
10
0
20
0
30
-6.25
40
1
50
180
51
-90
0
LINE
8
1
62
1
10
-1
20
0
30
-6.25
11
-1
21
50
31
-6.25
0
ARC
8
1
62
1
10
0
20
50
30
-6.25
40
1
50
90
51
180
0
LINE
8
1
62
1
10
0
20
51
30
-6.25
11
50
21
51
31
-6.25
0
ARC
8
1
62
1
10
50
20
50
30
-6.25
40
1
50
0
51
90
0
LINE
8
1
62
1
10
51
20
50
30
-6.25
11
51
21
0
31
-6.25
0
ARC
8
1
62
1
10
50
20
0
30
-6.25
40
1
50
-90
51
0
0
LINE
8
1
62
1
10
50
20
-1
30
-6.25
11
25
21
-1
31
-6.25
0
ARC
8
1
62
1
10
25
20
0
30
-6.25
40
1
50
180
51
-90
0
LINE
8
1
62
1
10
24
20
0
30
-6.25
11
24
21
15
31
-6.25
0
ARC
8
1
62
1
10
25
20
15
30
-6.25
40
1
50
90
51
180
0
LINE
8
1
62
1
10
25
20
16
30
-6.25
11
34
21
16
31
-6.25
0
LINE
8
1
62
1
10
34
20
16
30
-6.25
11
34
21
39
31
-6.25
0
LINE
8
1
62
1
10
34
20
39
30
-6.25
11
11
21
39
31
-6.25
0
LINE
8
1
62
1
10
11
20
39
30
-6.25
11
11
21
16
31
-6.25
0
LINE
8
1
62
1
10
11
20
16
30
-6.25
11
18.43
21
16
31
-6.25
0
ARC
8
1
62
1
10
18.43
20
15
30
-6.25
40
1
50
0
51
90
0
LINE
8
1
62
1
10
19.43
20
15
30
-6.25
11
19.43
21
0
31
-6.25
0
ARC
8
1
62
1
10
18.43
20
0
30
-6.25
40
1
50
-90
51
0
0
LINE
8
1
62
1
10
18.43
20
-1
30
-6.25
11
0
21
-1
31
-6.25
0
ARC
8
1
62
2
10
0
20
-1.2
30
-6.25
40
0.2
50
90
51
180
0
LINE
8
1
62
2
10
-0.2
20
-1.2
30
-6.25
11
-0.2
21
-1.4
31
-6.25
0
LINE
8
1
62
2
10
-0.2
20
-1.4
30
-6.25
11
-0.2
21
-1.439
31
-6.246
0
LINE
8
1
62
2
10
-0.2
20
-1.439
30
-6.246
11
-0.2
21
-1.477
31
-6.235
0
LINE
8
1
62
2
10
-0.2
20
-1.477
30
-6.235
11
-0.2
21
-1.511
31
-6.216
0
LINE
8
1
62
2
10
-0.2
20
-1.511
30
-6.216
11
-0.2
21
-1.541
31
-6.191
0
LINE
8
1
62
2
10
-0.2
20
-1.541
30
-6.191
11
-0.2
21
-1.566
31
-6.161
0
LINE
8
1
62
2
10
-0.2
20
-1.566
30
-6.161
11
-0.2
21
-1.585
31
-6.127
0
LINE
8
1
62
2
10
-0.2
20
-1.585
30
-6.127
11
-0.2
21
-1.596
31
-6.089
0
LINE
8
1
62
2
10
-0.2
20
-1.596
30
-6.089
11
-0.2
21
-1.6
31
-6.05
0
LINE
8
1
62
1
10
-0.2
20
-1.6
30
-6.05
11
-0.2
21
-1.6
31
10
0
ENDSEC
0
EOF
